G75*
%MOIN*%
%OFA0B0*%
%FSLAX24Y24*%
%IPPOS*%
%LPD*%
%AMOC8*
5,1,8,0,0,1.08239X$1,22.5*
%
%ADD10C,0.0000*%
%ADD11C,0.0120*%
%ADD12C,0.0020*%
%ADD13C,0.0060*%
%ADD14C,0.0030*%
%ADD15C,0.0050*%
%ADD16C,0.0100*%
%ADD17C,0.0080*%
%ADD18C,0.0040*%
D10*
X000660Y000660D02*
X000660Y014530D01*
X010652Y014530D01*
X010652Y000660D01*
X000660Y000660D01*
D11*
X003160Y002160D02*
X002785Y002785D01*
X003535Y002785D01*
X003160Y002160D01*
X004719Y006360D02*
X004721Y006383D01*
X004727Y006406D01*
X004736Y006427D01*
X004749Y006447D01*
X004765Y006464D01*
X004783Y006478D01*
X004803Y006489D01*
X004825Y006497D01*
X004848Y006501D01*
X004872Y006501D01*
X004895Y006497D01*
X004917Y006489D01*
X004937Y006478D01*
X004955Y006464D01*
X004971Y006447D01*
X004984Y006427D01*
X004993Y006406D01*
X004999Y006383D01*
X005001Y006360D01*
X004999Y006337D01*
X004993Y006314D01*
X004984Y006293D01*
X004971Y006273D01*
X004955Y006256D01*
X004937Y006242D01*
X004917Y006231D01*
X004895Y006223D01*
X004872Y006219D01*
X004848Y006219D01*
X004825Y006223D01*
X004803Y006231D01*
X004783Y006242D01*
X004765Y006256D01*
X004749Y006273D01*
X004736Y006293D01*
X004727Y006314D01*
X004721Y006337D01*
X004719Y006360D01*
D12*
X005970Y006229D02*
X005970Y006156D01*
X005970Y006192D02*
X006190Y006192D01*
X006190Y006156D02*
X006190Y006229D01*
X006080Y006303D02*
X006080Y006450D01*
X006330Y006450D02*
X006550Y006450D01*
X006550Y006340D01*
X006513Y006303D01*
X006440Y006303D01*
X006403Y006340D01*
X006403Y006450D01*
X006330Y006229D02*
X006330Y006156D01*
X006330Y006192D02*
X006550Y006192D01*
X006550Y006156D02*
X006550Y006229D01*
X006513Y006082D02*
X006367Y006082D01*
X006330Y006045D01*
X006330Y005972D01*
X006367Y005935D01*
X006367Y005861D02*
X006330Y005824D01*
X006330Y005751D01*
X006367Y005714D01*
X006403Y005714D01*
X006440Y005751D01*
X006440Y005787D01*
X006440Y005751D02*
X006477Y005714D01*
X006513Y005714D01*
X006550Y005751D01*
X006550Y005824D01*
X006513Y005861D01*
X006513Y005935D02*
X006550Y005972D01*
X006550Y006045D01*
X006513Y006082D01*
X006190Y005935D02*
X005970Y006082D01*
X006007Y005861D02*
X005970Y005824D01*
X005970Y005751D01*
X006007Y005714D01*
X006043Y005714D01*
X006080Y005751D01*
X006080Y005824D01*
X006117Y005861D01*
X006153Y005861D01*
X006190Y005824D01*
X006190Y005751D01*
X006153Y005714D01*
X006153Y005640D02*
X006117Y005640D01*
X006080Y005603D01*
X006080Y005530D01*
X006043Y005493D01*
X006007Y005493D01*
X005970Y005530D01*
X005970Y005603D01*
X006007Y005640D01*
X006153Y005640D02*
X006190Y005603D01*
X006190Y005530D01*
X006153Y005493D01*
X006330Y005493D02*
X006330Y005640D01*
X006477Y005493D01*
X006513Y005493D01*
X006550Y005530D01*
X006550Y005603D01*
X006513Y005640D01*
X006550Y005419D02*
X006477Y005345D01*
X006550Y005272D01*
X006330Y005272D01*
X006330Y005198D02*
X006550Y005051D01*
X006513Y004977D02*
X006550Y004940D01*
X006550Y004867D01*
X006513Y004830D01*
X006477Y004830D01*
X006330Y004977D01*
X006330Y004830D01*
X006367Y004756D02*
X006330Y004719D01*
X006330Y004646D01*
X006367Y004609D01*
X006440Y004609D01*
X006477Y004646D01*
X006477Y004682D01*
X006440Y004756D01*
X006550Y004756D01*
X006550Y004609D01*
X006513Y004535D02*
X006367Y004535D01*
X006513Y004388D01*
X006367Y004388D01*
X006330Y004425D01*
X006330Y004498D01*
X006367Y004535D01*
X006513Y004535D02*
X006550Y004498D01*
X006550Y004425D01*
X006513Y004388D01*
X006550Y004314D02*
X006550Y004167D01*
X006477Y004093D02*
X006550Y004019D01*
X006330Y004019D01*
X006330Y003946D02*
X006330Y004093D01*
X006440Y004240D02*
X006440Y004314D01*
X006330Y004314D02*
X006550Y004314D01*
X006513Y003872D02*
X006550Y003835D01*
X006550Y003762D01*
X006513Y003725D01*
X006477Y003725D01*
X006330Y003872D01*
X006330Y003725D01*
X006367Y003651D02*
X006330Y003614D01*
X006330Y003541D01*
X006367Y003504D01*
X006403Y003504D01*
X006440Y003541D01*
X006440Y003614D01*
X006477Y003651D01*
X006513Y003651D01*
X006550Y003614D01*
X006550Y003541D01*
X006513Y003504D01*
X006477Y003504D01*
X006440Y003541D01*
X006440Y003614D02*
X006403Y003651D01*
X006367Y003651D01*
X006330Y003430D02*
X006330Y003320D01*
X006367Y003283D01*
X006403Y003283D01*
X006440Y003320D01*
X006440Y003430D01*
X006330Y003430D02*
X006550Y003430D01*
X006550Y003320D01*
X006513Y003283D01*
X006477Y003283D01*
X006440Y003320D01*
X006459Y002390D02*
X006569Y002390D01*
X006606Y002353D01*
X006606Y002280D01*
X006569Y002243D01*
X006459Y002243D01*
X006459Y002170D02*
X006459Y002390D01*
X006385Y002390D02*
X006238Y002390D01*
X006238Y002170D01*
X006385Y002170D01*
X006311Y002280D02*
X006238Y002280D01*
X006164Y002390D02*
X006164Y002170D01*
X006017Y002170D02*
X006017Y002390D01*
X006090Y002317D01*
X006164Y002390D01*
X005943Y002390D02*
X005943Y002170D01*
X005796Y002170D02*
X005796Y002390D01*
X005869Y002317D01*
X005943Y002390D01*
X005722Y002317D02*
X005722Y002170D01*
X005722Y002280D02*
X005575Y002280D01*
X005575Y002317D02*
X005575Y002170D01*
X005501Y002170D02*
X005427Y002243D01*
X005464Y002243D02*
X005354Y002243D01*
X005354Y002170D02*
X005354Y002390D01*
X005464Y002390D01*
X005501Y002353D01*
X005501Y002280D01*
X005464Y002243D01*
X005575Y002317D02*
X005648Y002390D01*
X005722Y002317D01*
X005280Y002353D02*
X005243Y002390D01*
X005170Y002390D01*
X005133Y002353D01*
X005133Y002207D01*
X005170Y002170D01*
X005243Y002170D01*
X005280Y002207D01*
X005280Y002280D01*
X005206Y002280D01*
X005059Y002207D02*
X005059Y002353D01*
X005022Y002390D01*
X004949Y002390D01*
X004912Y002353D01*
X004912Y002207D01*
X004949Y002170D01*
X005022Y002170D01*
X005059Y002207D01*
X004838Y002170D02*
X004764Y002243D01*
X004801Y002243D02*
X004691Y002243D01*
X004691Y002170D02*
X004691Y002390D01*
X004801Y002390D01*
X004838Y002353D01*
X004838Y002280D01*
X004801Y002243D01*
X004617Y002280D02*
X004580Y002243D01*
X004470Y002243D01*
X004470Y002170D02*
X004470Y002390D01*
X004580Y002390D01*
X004617Y002353D01*
X004617Y002280D01*
X006532Y002243D02*
X006606Y002170D01*
X006330Y005051D02*
X006550Y005198D01*
X006550Y005419D02*
X006330Y005419D01*
X006359Y008020D02*
X006359Y008240D01*
X006433Y008240D02*
X006580Y008240D01*
X006506Y008240D02*
X006506Y008020D01*
X006359Y008020D02*
X006212Y008240D01*
X006212Y008020D01*
X006138Y008020D02*
X006138Y008167D01*
X006064Y008240D01*
X005991Y008167D01*
X005991Y008020D01*
X005991Y008130D02*
X006138Y008130D01*
X005917Y008240D02*
X005770Y008240D01*
X005843Y008240D02*
X005843Y008020D01*
X008730Y007980D02*
X008730Y007870D01*
X008950Y007870D01*
X008877Y007870D02*
X008877Y007980D01*
X008840Y008017D01*
X008767Y008017D01*
X008730Y007980D01*
X008840Y008091D02*
X008730Y008201D01*
X008950Y008201D01*
X008840Y008238D02*
X008840Y008091D01*
X008877Y007588D02*
X008913Y007588D01*
X008950Y007551D01*
X008950Y007478D01*
X008913Y007441D01*
X008840Y007514D02*
X008840Y007551D01*
X008877Y007588D01*
X008840Y007551D02*
X008803Y007588D01*
X008767Y007588D01*
X008730Y007551D01*
X008730Y007478D01*
X008767Y007441D01*
X008767Y007367D02*
X008840Y007367D01*
X008877Y007330D01*
X008877Y007220D01*
X008950Y007220D02*
X008730Y007220D01*
X008730Y007330D01*
X008767Y007367D01*
X008950Y006588D02*
X008950Y006441D01*
X008950Y006514D02*
X008730Y006514D01*
X008803Y006441D01*
X008767Y006367D02*
X008840Y006367D01*
X008877Y006330D01*
X008877Y006220D01*
X008950Y006220D02*
X008730Y006220D01*
X008730Y006330D01*
X008767Y006367D01*
X008730Y005709D02*
X008767Y005635D01*
X008840Y005562D01*
X008840Y005672D01*
X008877Y005709D01*
X008913Y005709D01*
X008950Y005672D01*
X008950Y005599D01*
X008913Y005562D01*
X008840Y005562D01*
X008803Y005488D02*
X008767Y005488D01*
X008730Y005451D01*
X008730Y005378D01*
X008767Y005341D01*
X008767Y005267D02*
X008840Y005267D01*
X008877Y005230D01*
X008877Y005120D01*
X008950Y005120D02*
X008730Y005120D01*
X008730Y005230D01*
X008767Y005267D01*
X008950Y005341D02*
X008803Y005488D01*
X008950Y005488D02*
X008950Y005341D01*
X008913Y004709D02*
X008950Y004672D01*
X008950Y004599D01*
X008913Y004562D01*
X008840Y004562D02*
X008803Y004635D01*
X008803Y004672D01*
X008840Y004709D01*
X008913Y004709D01*
X008840Y004562D02*
X008730Y004562D01*
X008730Y004709D01*
X008767Y004488D02*
X008730Y004451D01*
X008730Y004378D01*
X008767Y004341D01*
X008767Y004267D02*
X008840Y004267D01*
X008877Y004230D01*
X008877Y004120D01*
X008950Y004120D02*
X008730Y004120D01*
X008730Y004230D01*
X008767Y004267D01*
X008950Y004341D02*
X008803Y004488D01*
X008767Y004488D01*
X008950Y004488D02*
X008950Y004341D01*
X008840Y003709D02*
X008840Y003562D01*
X008730Y003672D01*
X008950Y003672D01*
X008950Y003488D02*
X008950Y003341D01*
X008803Y003488D01*
X008767Y003488D01*
X008730Y003451D01*
X008730Y003378D01*
X008767Y003341D01*
X008767Y003267D02*
X008840Y003267D01*
X008877Y003230D01*
X008877Y003120D01*
X008950Y003120D02*
X008730Y003120D01*
X008730Y003230D01*
X008767Y003267D01*
X008730Y002588D02*
X008877Y002588D01*
X008950Y002514D01*
X008877Y002441D01*
X008730Y002441D01*
X008730Y002367D02*
X008730Y002220D01*
X008840Y002220D01*
X008803Y002293D01*
X008803Y002330D01*
X008840Y002367D01*
X008913Y002367D01*
X008950Y002330D01*
X008950Y002257D01*
X008913Y002220D01*
X008963Y001659D02*
X008817Y001659D01*
X008780Y001622D01*
X008780Y001512D01*
X009000Y001512D01*
X009000Y001622D01*
X008963Y001659D01*
X009000Y001438D02*
X008780Y001438D01*
X008780Y001291D02*
X009000Y001438D01*
X009000Y001291D02*
X008780Y001291D01*
X008817Y001217D02*
X008780Y001180D01*
X008780Y001107D01*
X008817Y001070D01*
X008963Y001070D01*
X009000Y001107D01*
X009000Y001180D01*
X008963Y001217D01*
X008890Y001217D01*
X008890Y001143D01*
X008767Y009070D02*
X008913Y009070D01*
X008950Y009107D01*
X008950Y009180D01*
X008913Y009217D01*
X008840Y009217D01*
X008840Y009143D01*
X008767Y009070D02*
X008730Y009107D01*
X008730Y009180D01*
X008767Y009217D01*
X008730Y009291D02*
X008950Y009438D01*
X008730Y009438D01*
X008730Y009512D02*
X008730Y009622D01*
X008767Y009659D01*
X008913Y009659D01*
X008950Y009622D01*
X008950Y009512D01*
X008730Y009512D01*
X008730Y009291D02*
X008950Y009291D01*
X008913Y010070D02*
X008767Y010070D01*
X008730Y010107D01*
X008730Y010180D01*
X008767Y010217D01*
X008840Y010217D02*
X008840Y010143D01*
X008840Y010217D02*
X008913Y010217D01*
X008950Y010180D01*
X008950Y010107D01*
X008913Y010070D01*
X008950Y010291D02*
X008730Y010291D01*
X008950Y010438D01*
X008730Y010438D01*
X008730Y010512D02*
X008730Y010622D01*
X008767Y010659D01*
X008913Y010659D01*
X008950Y010622D01*
X008950Y010512D01*
X008730Y010512D01*
X002640Y010479D02*
X002493Y010479D01*
X002420Y010406D01*
X002493Y010332D01*
X002640Y010332D01*
X002603Y010258D02*
X002640Y010221D01*
X002640Y010148D01*
X002603Y010111D01*
X002567Y010111D01*
X002530Y010148D01*
X002493Y010111D01*
X002457Y010111D01*
X002420Y010148D01*
X002420Y010221D01*
X002457Y010258D01*
X002530Y010185D02*
X002530Y010148D01*
X002493Y010553D02*
X002457Y010553D01*
X002420Y010590D01*
X002420Y010663D01*
X002457Y010700D01*
X002530Y010627D02*
X002530Y010590D01*
X002493Y010553D01*
X002530Y010590D02*
X002567Y010553D01*
X002603Y010553D01*
X002640Y010590D01*
X002640Y010663D01*
X002603Y010700D01*
X002640Y009700D02*
X002420Y009700D01*
X002493Y009700D02*
X002493Y009590D01*
X002530Y009553D01*
X002603Y009553D01*
X002640Y009590D01*
X002640Y009700D01*
X002493Y009627D02*
X002420Y009553D01*
X002457Y009479D02*
X002420Y009442D01*
X002420Y009369D01*
X002457Y009332D01*
X002493Y009332D01*
X002530Y009369D01*
X002530Y009442D01*
X002567Y009479D01*
X002603Y009479D01*
X002640Y009442D01*
X002640Y009369D01*
X002603Y009332D01*
X002640Y009258D02*
X002640Y009111D01*
X002640Y009185D02*
X002420Y009185D01*
X002420Y008600D02*
X002640Y008600D01*
X002640Y008490D01*
X002603Y008453D01*
X002530Y008453D01*
X002493Y008490D01*
X002493Y008600D01*
X002457Y008379D02*
X002420Y008342D01*
X002420Y008269D01*
X002457Y008232D01*
X002530Y008232D01*
X002567Y008269D01*
X002567Y008306D01*
X002530Y008379D01*
X002640Y008379D01*
X002640Y008232D01*
X002640Y007600D02*
X002420Y007600D01*
X002493Y007600D02*
X002493Y007490D01*
X002530Y007453D01*
X002603Y007453D01*
X002640Y007490D01*
X002640Y007600D01*
X002530Y007379D02*
X002530Y007269D01*
X002493Y007232D01*
X002457Y007232D01*
X002420Y007269D01*
X002420Y007342D01*
X002457Y007379D01*
X002530Y007379D01*
X002603Y007306D01*
X002640Y007232D01*
X002640Y006550D02*
X002420Y006550D01*
X002493Y006550D02*
X002493Y006440D01*
X002530Y006403D01*
X002603Y006403D01*
X002640Y006440D01*
X002640Y006550D01*
X002640Y006329D02*
X002640Y006182D01*
X002603Y006182D01*
X002457Y006329D01*
X002420Y006329D01*
X002420Y005600D02*
X002640Y005600D01*
X002640Y005490D01*
X002603Y005453D01*
X002530Y005453D01*
X002493Y005490D01*
X002493Y005600D01*
X002493Y005379D02*
X002457Y005379D01*
X002420Y005342D01*
X002420Y005269D01*
X002457Y005232D01*
X002493Y005232D01*
X002530Y005269D01*
X002530Y005342D01*
X002567Y005379D01*
X002603Y005379D01*
X002640Y005342D01*
X002640Y005269D01*
X002603Y005232D01*
X002567Y005232D01*
X002530Y005269D01*
X002530Y005342D02*
X002493Y005379D01*
X002493Y004600D02*
X002493Y004490D01*
X002530Y004453D01*
X002603Y004453D01*
X002640Y004490D01*
X002640Y004600D01*
X002420Y004600D01*
X002457Y004379D02*
X002420Y004342D01*
X002420Y004269D01*
X002457Y004232D01*
X002603Y004232D01*
X002640Y004269D01*
X002640Y004342D01*
X002603Y004379D01*
X002567Y004379D01*
X002530Y004342D01*
X002530Y004232D01*
X002493Y003700D02*
X002493Y003590D01*
X002530Y003553D01*
X002603Y003553D01*
X002640Y003590D01*
X002640Y003700D01*
X002420Y003700D01*
X002420Y003479D02*
X002420Y003332D01*
X002420Y003406D02*
X002640Y003406D01*
X002567Y003479D01*
X002603Y003258D02*
X002457Y003258D01*
X002603Y003111D01*
X002457Y003111D01*
X002420Y003148D01*
X002420Y003221D01*
X002457Y003258D01*
X002603Y003258D02*
X002640Y003221D01*
X002640Y003148D01*
X002603Y003111D01*
X002640Y002650D02*
X002420Y002650D01*
X002493Y002650D02*
X002493Y002540D01*
X002530Y002503D01*
X002603Y002503D01*
X002640Y002540D01*
X002640Y002650D01*
X002567Y002429D02*
X002640Y002356D01*
X002420Y002356D01*
X002420Y002429D02*
X002420Y002282D01*
X002457Y002208D02*
X002493Y002208D01*
X002530Y002171D01*
X002530Y002098D01*
X002493Y002061D01*
X002457Y002061D01*
X002420Y002098D01*
X002420Y002171D01*
X002457Y002208D01*
X002530Y002171D02*
X002567Y002208D01*
X002603Y002208D01*
X002640Y002171D01*
X002640Y002098D01*
X002603Y002061D01*
X002567Y002061D01*
X002530Y002098D01*
X002503Y001750D02*
X002357Y001750D01*
X002320Y001713D01*
X002320Y001640D01*
X002357Y001603D01*
X002430Y001603D01*
X002430Y001677D01*
X002503Y001750D02*
X002540Y001713D01*
X002540Y001640D01*
X002503Y001603D01*
X002540Y001529D02*
X002320Y001382D01*
X002540Y001382D01*
X002540Y001308D02*
X002540Y001198D01*
X002503Y001161D01*
X002357Y001161D01*
X002320Y001198D01*
X002320Y001308D01*
X002540Y001308D01*
X002540Y001529D02*
X002320Y001529D01*
D13*
X002160Y001660D02*
X001910Y001910D01*
X001410Y001910D01*
X001160Y001660D01*
X001160Y001160D01*
X001410Y000910D01*
X001910Y000910D01*
X002160Y001160D01*
X002160Y001660D01*
X001910Y001910D02*
X002160Y002160D01*
X002160Y002660D01*
X001910Y002910D01*
X001410Y002910D01*
X001160Y003160D01*
X001160Y003660D01*
X001410Y003910D01*
X001160Y004160D01*
X001160Y004660D01*
X001410Y004910D01*
X001160Y005160D01*
X001160Y005660D01*
X001410Y005910D01*
X001160Y006160D01*
X001160Y006660D01*
X001410Y006910D01*
X001160Y007160D01*
X001160Y007660D01*
X001410Y007910D01*
X001160Y008160D01*
X001160Y008660D01*
X001410Y008910D01*
X001160Y009160D01*
X001160Y009660D01*
X001410Y009910D01*
X001160Y010160D01*
X001160Y010660D01*
X001410Y010910D01*
X001910Y010910D01*
X002160Y010660D01*
X002160Y010160D01*
X001910Y009910D01*
X002160Y009660D01*
X002160Y009160D01*
X001910Y008910D01*
X001410Y008910D01*
X001910Y008910D02*
X002160Y008660D01*
X002160Y008160D01*
X001910Y007910D01*
X002160Y007660D01*
X002160Y007160D01*
X001910Y006910D01*
X002160Y006660D01*
X002160Y006160D01*
X001910Y005910D01*
X001410Y005910D01*
X001910Y005910D02*
X002160Y005660D01*
X002160Y005160D01*
X001910Y004910D01*
X002160Y004660D01*
X002160Y004160D01*
X001910Y003910D01*
X002160Y003660D01*
X002160Y003160D01*
X001910Y002910D01*
X001410Y002910D02*
X001160Y002660D01*
X001160Y002160D01*
X001410Y001910D01*
X001410Y003910D02*
X001910Y003910D01*
X001910Y004910D02*
X001410Y004910D01*
X001410Y006910D02*
X001910Y006910D01*
X001910Y007910D02*
X001410Y007910D01*
X001410Y009910D02*
X001910Y009910D01*
X004560Y006730D02*
X004560Y006540D01*
X004560Y006730D02*
X005540Y006730D01*
X005780Y006730D01*
X006760Y006730D01*
X006760Y006540D01*
X005780Y006730D02*
X005778Y006709D01*
X005773Y006689D01*
X005764Y006670D01*
X005752Y006653D01*
X005737Y006638D01*
X005720Y006626D01*
X005701Y006617D01*
X005681Y006612D01*
X005660Y006610D01*
X005639Y006612D01*
X005619Y006617D01*
X005600Y006626D01*
X005583Y006638D01*
X005568Y006653D01*
X005556Y006670D01*
X005547Y006689D01*
X005542Y006709D01*
X005540Y006730D01*
X003810Y004100D02*
X003810Y003950D01*
X003710Y003950D01*
X003710Y004100D01*
X004560Y002780D02*
X004560Y002590D01*
X006760Y002590D01*
X006760Y002780D01*
X007510Y004200D02*
X007510Y004350D01*
X007610Y004350D02*
X007610Y004200D01*
X007510Y004200D01*
X009160Y004160D02*
X009160Y004660D01*
X009410Y004910D01*
X009160Y005160D01*
X009160Y005660D01*
X009410Y005910D01*
X009160Y006160D01*
X009160Y006660D01*
X009410Y006910D01*
X009160Y007160D01*
X009160Y007660D01*
X009410Y007910D01*
X009160Y008160D01*
X009160Y008660D01*
X009410Y008910D01*
X009160Y009160D01*
X009160Y009660D01*
X009410Y009910D01*
X009160Y010160D01*
X009160Y010660D01*
X009410Y010910D01*
X009910Y010910D01*
X010160Y010660D01*
X010160Y010160D01*
X009910Y009910D01*
X010160Y009660D01*
X010160Y009160D01*
X009910Y008910D01*
X009410Y008910D01*
X009910Y008910D02*
X010160Y008660D01*
X010160Y008160D01*
X009910Y007910D01*
X010160Y007660D01*
X010160Y007160D01*
X009910Y006910D01*
X010160Y006660D01*
X010160Y006160D01*
X009910Y005910D01*
X009410Y005910D01*
X009910Y005910D02*
X010160Y005660D01*
X010160Y005160D01*
X009910Y004910D01*
X010160Y004660D01*
X010160Y004160D01*
X009910Y003910D01*
X010160Y003660D01*
X010160Y003160D01*
X009910Y002910D01*
X009410Y002910D01*
X009160Y003160D01*
X009160Y003660D01*
X009410Y003910D01*
X009160Y004160D01*
X009410Y003910D02*
X009910Y003910D01*
X009910Y004910D02*
X009410Y004910D01*
X009410Y006910D02*
X009910Y006910D01*
X009910Y007910D02*
X009410Y007910D01*
X009410Y009910D02*
X009910Y009910D01*
X009910Y002910D02*
X010160Y002660D01*
X010160Y002160D01*
X009910Y001910D01*
X010160Y001660D01*
X010160Y001160D01*
X009910Y000910D01*
X009410Y000910D01*
X009160Y001160D01*
X009160Y001660D01*
X009410Y001910D01*
X009160Y002160D01*
X009160Y002660D01*
X009410Y002910D01*
X009410Y001910D02*
X009910Y001910D01*
D14*
X007645Y007375D02*
X007645Y007568D01*
X007645Y007472D02*
X007355Y007472D01*
X007452Y007375D01*
X007403Y007670D02*
X007355Y007718D01*
X007355Y007815D01*
X007403Y007863D01*
X007597Y007670D01*
X007645Y007718D01*
X007645Y007815D01*
X007597Y007863D01*
X007403Y007863D01*
X007355Y007964D02*
X007645Y007964D01*
X007548Y007964D02*
X007645Y008109D01*
X007548Y007964D02*
X007452Y008109D01*
X007403Y007670D02*
X007597Y007670D01*
X007665Y009440D02*
X007665Y009634D01*
X007665Y009537D02*
X007375Y009537D01*
X007472Y009440D01*
X007423Y009735D02*
X007375Y009783D01*
X007375Y009880D01*
X007423Y009928D01*
X007617Y009735D01*
X007665Y009783D01*
X007665Y009880D01*
X007617Y009928D01*
X007423Y009928D01*
X007375Y010029D02*
X007665Y010029D01*
X007568Y010029D02*
X007472Y010175D01*
X007568Y010029D02*
X007665Y010175D01*
X007617Y009735D02*
X007423Y009735D01*
X006008Y009315D02*
X005960Y009267D01*
X005960Y009025D01*
X005810Y009025D02*
X005810Y009218D01*
X005912Y009170D02*
X006008Y009170D01*
X005810Y009025D02*
X005665Y009025D01*
X005617Y009073D01*
X005617Y009218D01*
X005516Y009025D02*
X005322Y009025D01*
X005419Y009025D02*
X005419Y009315D01*
X005322Y009218D01*
X005223Y009073D02*
X005223Y009025D01*
X005175Y009025D01*
X005175Y009073D01*
X005223Y009073D01*
X004984Y008295D02*
X004888Y008295D01*
X004839Y008247D01*
X004839Y008053D01*
X005033Y008247D01*
X005033Y008053D01*
X004984Y008005D01*
X004888Y008005D01*
X004839Y008053D01*
X004738Y008005D02*
X004545Y008005D01*
X004641Y008005D02*
X004641Y008295D01*
X004545Y008198D01*
X004984Y008295D02*
X005033Y008247D01*
X005134Y008198D02*
X005134Y008053D01*
X005182Y008005D01*
X005327Y008005D01*
X005327Y008198D01*
X005429Y008150D02*
X005525Y008150D01*
X005477Y008247D02*
X005525Y008295D01*
X005477Y008247D02*
X005477Y008005D01*
X004239Y006847D02*
X003925Y006533D01*
X003925Y006690D02*
X004239Y006690D01*
X004239Y006533D02*
X003925Y006847D01*
X004082Y006847D02*
X004082Y006533D01*
X003915Y007190D02*
X003915Y007384D01*
X003915Y007287D02*
X003625Y007287D01*
X003722Y007190D01*
X003673Y007485D02*
X003625Y007533D01*
X003625Y007630D01*
X003673Y007678D01*
X003867Y007485D01*
X003915Y007533D01*
X003915Y007630D01*
X003867Y007678D01*
X003673Y007678D01*
X003625Y007779D02*
X003915Y007779D01*
X003818Y007779D02*
X003915Y007925D01*
X003818Y007779D02*
X003722Y007925D01*
X003673Y007485D02*
X003867Y007485D01*
X003895Y009525D02*
X003895Y009718D01*
X003895Y009622D02*
X003605Y009622D01*
X003702Y009525D01*
X003653Y009820D02*
X003605Y009868D01*
X003605Y009965D01*
X003653Y010013D01*
X003847Y009820D01*
X003895Y009868D01*
X003895Y009965D01*
X003847Y010013D01*
X003653Y010013D01*
X003605Y010114D02*
X003895Y010114D01*
X003798Y010114D02*
X003895Y010259D01*
X003798Y010114D02*
X003702Y010259D01*
X003653Y009820D02*
X003847Y009820D01*
X005225Y010250D02*
X005273Y010250D01*
X005273Y010298D01*
X005225Y010298D01*
X005225Y010250D01*
X005372Y010250D02*
X005566Y010250D01*
X005469Y010250D02*
X005469Y010540D01*
X005372Y010443D01*
X005667Y010443D02*
X005667Y010298D01*
X005715Y010250D01*
X005860Y010250D01*
X005860Y010443D01*
X005962Y010395D02*
X006058Y010395D01*
X006010Y010492D02*
X006010Y010250D01*
X006010Y010492D02*
X006058Y010540D01*
D15*
X007176Y010701D02*
X004144Y010701D01*
X004144Y014835D01*
X007176Y014835D01*
X007176Y010701D01*
D16*
X008460Y002010D02*
X002860Y002010D01*
X002660Y001810D01*
X002660Y001010D01*
X002860Y000810D01*
X008460Y000810D01*
X008660Y001010D01*
X008660Y001810D01*
X008460Y002010D01*
D17*
X008346Y011479D02*
X008543Y011479D01*
X008346Y011479D02*
X008346Y013841D01*
X008543Y013841D01*
X008740Y013152D02*
X008740Y012168D01*
X009330Y012168D02*
X009330Y013132D01*
X009527Y013841D02*
X009724Y013841D01*
X009724Y011479D01*
X009527Y011479D01*
X002974Y011479D02*
X002777Y011479D01*
X002974Y011479D02*
X002974Y013841D01*
X002777Y013841D01*
X002580Y013152D02*
X002580Y012168D01*
X001990Y012188D02*
X001990Y013152D01*
X001793Y013841D02*
X001596Y013841D01*
X001596Y011479D01*
X001793Y011479D01*
D18*
X003155Y011578D02*
X003155Y011808D01*
X003231Y011885D01*
X003385Y011885D01*
X003462Y011808D01*
X003462Y011578D01*
X003615Y011578D02*
X003155Y011578D01*
X003462Y011731D02*
X003615Y011885D01*
X003615Y012038D02*
X003615Y012345D01*
X003538Y012499D02*
X003615Y012576D01*
X003615Y012729D01*
X003538Y012806D01*
X003462Y012806D01*
X003385Y012729D01*
X003385Y012576D01*
X003308Y012499D01*
X003231Y012499D01*
X003155Y012576D01*
X003155Y012729D01*
X003231Y012806D01*
X003155Y012959D02*
X003615Y012959D01*
X003615Y013266D01*
X003385Y013113D02*
X003385Y012959D01*
X003155Y012959D02*
X003155Y013266D01*
X003155Y013420D02*
X003155Y013727D01*
X003155Y013573D02*
X003615Y013573D01*
X003155Y012345D02*
X003155Y012038D01*
X003615Y012038D01*
X003385Y012038D02*
X003385Y012192D01*
X007705Y012140D02*
X007705Y012371D01*
X007781Y012447D01*
X007935Y012447D01*
X008012Y012371D01*
X008012Y012140D01*
X008012Y012294D02*
X008165Y012447D01*
X008088Y012601D02*
X008165Y012678D01*
X008165Y012831D01*
X008088Y012908D01*
X007781Y012908D01*
X007705Y012831D01*
X007705Y012678D01*
X007781Y012601D01*
X008088Y012601D01*
X008088Y013061D02*
X007781Y013061D01*
X007705Y013138D01*
X007705Y013291D01*
X007781Y013368D01*
X007935Y013368D02*
X007935Y013215D01*
X007935Y013368D02*
X008088Y013368D01*
X008165Y013291D01*
X008165Y013138D01*
X008088Y013061D01*
X008165Y012140D02*
X007705Y012140D01*
X007781Y011987D02*
X007935Y011987D01*
X008012Y011910D01*
X008012Y011680D01*
X008165Y011680D02*
X007705Y011680D01*
X007705Y011910D01*
X007781Y011987D01*
M02*
