G75*
%MOIN*%
%OFA0B0*%
%FSLAX24Y24*%
%IPPOS*%
%LPD*%
%AMOC8*
5,1,8,0,0,1.08239X$1,22.5*
%
%ADD10C,0.0000*%
%ADD11C,0.0516*%
%ADD12C,0.0985*%
%ADD13R,0.0670X0.0749*%
%ADD14R,0.0591X0.0788*%
%ADD15R,0.1221X0.0670*%
%ADD16R,0.2481X0.2323*%
%ADD17R,0.0670X0.0670*%
%ADD18C,0.0670*%
%ADD19C,0.0640*%
D10*
X000660Y000660D02*
X000660Y014530D01*
X010652Y014530D01*
X010652Y000660D01*
X000660Y000660D01*
D11*
X005030Y010934D02*
X005030Y011410D01*
X005345Y011882D02*
X005345Y012358D01*
X005975Y012358D02*
X005975Y011882D01*
X006290Y011410D02*
X006290Y010934D01*
X005660Y010934D02*
X005660Y011410D01*
D12*
X007097Y011764D03*
X007097Y013595D03*
X004223Y013595D03*
X004223Y011764D03*
D13*
X005109Y006510D03*
X006211Y006510D03*
X006211Y002810D03*
X005109Y002810D03*
D14*
X005188Y003794D03*
X006132Y003794D03*
X006132Y005526D03*
X005188Y005526D03*
D15*
X003835Y007910D03*
X003835Y009710D03*
D16*
X006662Y008810D03*
D17*
X003160Y001330D03*
D18*
X004160Y001490D03*
X005160Y001330D03*
X006160Y001490D03*
X007160Y001330D03*
X008160Y001490D03*
D19*
X009360Y001410D02*
X009960Y001410D01*
X009960Y002410D02*
X009360Y002410D01*
X009360Y003410D02*
X009960Y003410D01*
X009960Y004410D02*
X009360Y004410D01*
X009360Y005410D02*
X009960Y005410D01*
X009960Y006410D02*
X009360Y006410D01*
X009360Y007410D02*
X009960Y007410D01*
X009960Y008410D02*
X009360Y008410D01*
X009360Y009410D02*
X009960Y009410D01*
X009960Y010410D02*
X009360Y010410D01*
X001960Y010410D02*
X001360Y010410D01*
X001360Y009410D02*
X001960Y009410D01*
X001960Y008410D02*
X001360Y008410D01*
X001360Y007410D02*
X001960Y007410D01*
X001960Y006410D02*
X001360Y006410D01*
X001360Y005410D02*
X001960Y005410D01*
X001960Y004410D02*
X001360Y004410D01*
X001360Y003410D02*
X001960Y003410D01*
X001960Y002410D02*
X001360Y002410D01*
X001360Y001410D02*
X001960Y001410D01*
M02*
