G75*
%MOIN*%
%OFA0B0*%
%FSLAX24Y24*%
%IPPOS*%
%LPD*%
%AMOC8*
5,1,8,0,0,1.08239X$1,22.5*
%
%ADD10C,0.0000*%
%ADD11R,0.0690X0.0210*%
%ADD12R,0.0749X0.0670*%
%ADD13C,0.0516*%
%ADD14C,0.0985*%
%ADD15R,0.0670X0.0749*%
%ADD16R,0.0670X0.0670*%
%ADD17C,0.0670*%
%ADD18R,0.0670X0.0827*%
%ADD19C,0.0640*%
D10*
X000660Y000660D02*
X000660Y014530D01*
X010652Y014530D01*
X010652Y000660D01*
X000660Y000660D01*
D11*
X004230Y003000D03*
X004230Y003250D03*
X004230Y003510D03*
X004230Y003760D03*
X004230Y004020D03*
X004230Y004280D03*
X004230Y004530D03*
X004230Y004790D03*
X004230Y005040D03*
X004230Y005300D03*
X004230Y005560D03*
X004230Y005810D03*
X004230Y006070D03*
X004230Y006320D03*
X007090Y006320D03*
X007090Y006070D03*
X007090Y005810D03*
X007090Y005560D03*
X007090Y005300D03*
X007090Y005040D03*
X007090Y004790D03*
X007090Y004530D03*
X007090Y004280D03*
X007090Y004020D03*
X007090Y003760D03*
X007090Y003510D03*
X007090Y003250D03*
X007090Y003000D03*
D12*
X008160Y007109D03*
X008160Y008211D03*
X008160Y009359D03*
X008160Y010461D03*
X003160Y010461D03*
X003160Y009359D03*
X003160Y008211D03*
X003160Y007109D03*
D13*
X005030Y010934D02*
X005030Y011410D01*
X005345Y011882D02*
X005345Y012358D01*
X005975Y012358D02*
X005975Y011882D01*
X006290Y011410D02*
X006290Y010934D01*
X005660Y010934D02*
X005660Y011410D01*
D14*
X007097Y011764D03*
X007097Y013595D03*
X004223Y013595D03*
X004223Y011764D03*
D15*
X005109Y009785D03*
X005109Y008660D03*
X005109Y007560D03*
X006211Y007560D03*
X006211Y008660D03*
X006211Y009785D03*
D16*
X003160Y001330D03*
D17*
X004160Y001490D03*
X005160Y001330D03*
X006160Y001490D03*
X007160Y001330D03*
X008160Y001490D03*
D18*
X009035Y011597D03*
X009035Y013723D03*
X002285Y013723D03*
X002285Y011597D03*
D19*
X001960Y010410D02*
X001360Y010410D01*
X001360Y009410D02*
X001960Y009410D01*
X001960Y008410D02*
X001360Y008410D01*
X001360Y007410D02*
X001960Y007410D01*
X001960Y006410D02*
X001360Y006410D01*
X001360Y005410D02*
X001960Y005410D01*
X001960Y004410D02*
X001360Y004410D01*
X001360Y003410D02*
X001960Y003410D01*
X001960Y002410D02*
X001360Y002410D01*
X001360Y001410D02*
X001960Y001410D01*
X009360Y001410D02*
X009960Y001410D01*
X009960Y002410D02*
X009360Y002410D01*
X009360Y003410D02*
X009960Y003410D01*
X009960Y004410D02*
X009360Y004410D01*
X009360Y005410D02*
X009960Y005410D01*
X009960Y006410D02*
X009360Y006410D01*
X009360Y007410D02*
X009960Y007410D01*
X009960Y008410D02*
X009360Y008410D01*
X009360Y009410D02*
X009960Y009410D01*
X009960Y010410D02*
X009360Y010410D01*
M02*
