%
M48
M72
T01C0.0197
T02C0.0276
T03C0.0400
T04C0.0420
T05C0.0630
%
T01
X3660Y3010
X5035Y4660
X5610Y3285
X5510Y1910
X7810Y4910
X8285Y4410
X8485Y4985
X7810Y6310
X8785Y8410
X7035Y10535
X4160Y8535
X4035Y9160
X3160Y6410
T02
X5030Y11410
X5345Y11882
X5660Y11410
X5975Y11882
X6290Y11410
T03
X1660Y10410
X1660Y9410
X1660Y8410
X1660Y7410
X1660Y6410
X1660Y5410
X1660Y4410
X1660Y3410
X1660Y2410
X1660Y1410
X9660Y1410
X9660Y2410
X9660Y3410
X9660Y4410
X9660Y5410
X9660Y6410
X9660Y7410
X9660Y8410
X9660Y9410
X9660Y10410
T04
X4160Y1490
X3160Y1330
X5160Y1330
X6160Y1490
X7160Y1330
X8160Y1490
T05
X4223Y11764
X4223Y13595
X7097Y13595
X7097Y11764
M30
