G75*
%MOIN*%
%OFA0B0*%
%FSLAX24Y24*%
%IPPOS*%
%LPD*%
%AMOC8*
5,1,8,0,0,1.08239X$1,22.5*
%
%ADD10C,0.0000*%
%ADD11C,0.0030*%
%ADD12C,0.0476*%
%ADD13C,0.0945*%
%ADD14R,0.0630X0.0709*%
%ADD15R,0.0551X0.0748*%
%ADD16R,0.1181X0.0630*%
%ADD17R,0.2441X0.2283*%
%ADD18R,0.0630X0.0630*%
%ADD19C,0.0630*%
%ADD20C,0.0600*%
%ADD21C,0.0120*%
%ADD22C,0.0320*%
%ADD23C,0.0317*%
%ADD24C,0.0100*%
D10*
X000660Y000660D02*
X000660Y014530D01*
X010652Y014530D01*
X010652Y000660D01*
X000660Y000660D01*
D11*
X001655Y012925D02*
X001778Y012925D01*
X001840Y012987D01*
X001840Y013110D02*
X001717Y013172D01*
X001655Y013172D01*
X001593Y013110D01*
X001593Y012987D01*
X001655Y012925D01*
X001840Y013110D02*
X001840Y013295D01*
X001593Y013295D01*
X001593Y013525D02*
X001778Y013710D01*
X001840Y013648D02*
X001593Y013895D01*
X001840Y013895D02*
X001840Y013525D01*
X001961Y013587D02*
X002023Y013525D01*
X002147Y013525D01*
X002208Y013587D01*
X002208Y013834D01*
X002147Y013895D01*
X002023Y013895D01*
X001961Y013834D01*
X002330Y013895D02*
X002577Y013895D01*
X002577Y013525D01*
X002330Y013525D01*
X002453Y013710D02*
X002577Y013710D01*
X002698Y013710D02*
X002945Y013710D01*
X002945Y013525D02*
X002945Y013895D01*
X002698Y013895D02*
X002698Y013525D01*
X002760Y013295D02*
X002698Y013234D01*
X002698Y013172D01*
X002945Y012925D01*
X002698Y012925D01*
X002577Y012987D02*
X002330Y013234D01*
X002330Y012987D01*
X002392Y012925D01*
X002515Y012925D01*
X002577Y012987D01*
X002577Y013234D01*
X002515Y013295D01*
X002392Y013295D01*
X002330Y013234D01*
X002208Y013172D02*
X002085Y013295D01*
X002085Y012925D01*
X002208Y012925D02*
X001961Y012925D01*
X002760Y013295D02*
X002883Y013295D01*
X002945Y013234D01*
D12*
X005030Y011410D02*
X005030Y010934D01*
X005660Y010934D02*
X005660Y011410D01*
X005345Y011882D02*
X005345Y012358D01*
X005975Y012358D02*
X005975Y011882D01*
X006290Y011410D02*
X006290Y010934D01*
D13*
X007097Y011764D03*
X007097Y013595D03*
X004223Y013595D03*
X004223Y011764D03*
D14*
X005109Y006510D03*
X006211Y006510D03*
X006211Y002810D03*
X005109Y002810D03*
D15*
X005188Y003794D03*
X006132Y003794D03*
X006132Y005526D03*
X005188Y005526D03*
D16*
X003835Y007910D03*
X003835Y009710D03*
D17*
X006662Y008810D03*
D18*
X003160Y001330D03*
D19*
X004160Y001490D03*
X005160Y001330D03*
X006160Y001490D03*
X007160Y001330D03*
X008160Y001490D03*
D20*
X009360Y001410D02*
X009960Y001410D01*
X009960Y002410D02*
X009360Y002410D01*
X009360Y003410D02*
X009960Y003410D01*
X009960Y004410D02*
X009360Y004410D01*
X009360Y005410D02*
X009960Y005410D01*
X009960Y006410D02*
X009360Y006410D01*
X009360Y007410D02*
X009960Y007410D01*
X009960Y008410D02*
X009360Y008410D01*
X009360Y009410D02*
X009960Y009410D01*
X009960Y010410D02*
X009360Y010410D01*
X001960Y010410D02*
X001360Y010410D01*
X001360Y009410D02*
X001960Y009410D01*
X001960Y008410D02*
X001360Y008410D01*
X001360Y007410D02*
X001960Y007410D01*
X001960Y006410D02*
X001360Y006410D01*
X001360Y005410D02*
X001960Y005410D01*
X001960Y004410D02*
X001360Y004410D01*
X001360Y003410D02*
X001960Y003410D01*
X001960Y002410D02*
X001360Y002410D01*
X001360Y001410D02*
X001960Y001410D01*
D21*
X001700Y001371D02*
X002725Y001371D01*
X002725Y001253D02*
X002392Y001253D01*
X002386Y001233D02*
X002409Y001302D01*
X002419Y001370D01*
X001700Y001370D01*
X001700Y001450D01*
X001620Y001450D01*
X001620Y001870D01*
X001324Y001870D01*
X001252Y001859D01*
X001183Y001836D01*
X001119Y001803D01*
X001060Y001761D01*
X001009Y001710D01*
X000967Y001651D01*
X000934Y001587D01*
X000911Y001518D01*
X000901Y001450D01*
X001620Y001450D01*
X001620Y001370D01*
X001700Y001370D01*
X001700Y000950D01*
X001996Y000950D01*
X002068Y000961D01*
X002137Y000984D01*
X002201Y001017D01*
X002260Y001059D01*
X002311Y001110D01*
X002353Y001169D01*
X002386Y001233D01*
X002328Y001134D02*
X002725Y001134D01*
X002725Y001016D02*
X002199Y001016D01*
X002419Y001450D02*
X002409Y001518D01*
X002386Y001587D01*
X002353Y001651D01*
X002311Y001710D01*
X002260Y001761D01*
X002201Y001803D01*
X002137Y001836D01*
X002068Y001859D01*
X001996Y001870D01*
X001700Y001870D01*
X001700Y001450D01*
X002419Y001450D01*
X002413Y001490D02*
X002725Y001490D01*
X002725Y001608D02*
X002375Y001608D01*
X002294Y001727D02*
X002757Y001727D01*
X002725Y001695D02*
X002725Y000965D01*
X002795Y000895D01*
X003525Y000895D01*
X003595Y000965D01*
X003595Y001695D01*
X003525Y001765D01*
X003340Y001765D01*
X003340Y006196D01*
X003396Y006252D01*
X003438Y006355D01*
X003438Y006465D01*
X003396Y006568D01*
X003318Y006646D01*
X003215Y006688D01*
X003105Y006688D01*
X003002Y006646D01*
X002924Y006568D01*
X002882Y006465D01*
X002882Y006355D01*
X002924Y006252D01*
X002980Y006196D01*
X002980Y001765D01*
X002795Y001765D01*
X002725Y001695D01*
X002980Y001845D02*
X002110Y001845D01*
X002044Y001990D02*
X002198Y002054D01*
X002316Y002172D01*
X002380Y002326D01*
X002380Y002494D01*
X002316Y002648D01*
X002198Y002766D01*
X002044Y002830D01*
X001276Y002830D01*
X001122Y002766D01*
X001004Y002648D01*
X000940Y002494D01*
X000940Y002326D01*
X001004Y002172D01*
X001122Y002054D01*
X001276Y001990D01*
X002044Y001990D01*
X002226Y002082D02*
X002980Y002082D01*
X002980Y001964D02*
X000820Y001964D01*
X000820Y002082D02*
X001094Y002082D01*
X000992Y002201D02*
X000820Y002201D01*
X000820Y002319D02*
X000943Y002319D01*
X000940Y002438D02*
X000820Y002438D01*
X000820Y002556D02*
X000966Y002556D01*
X001031Y002675D02*
X000820Y002675D01*
X000820Y002793D02*
X001187Y002793D01*
X001276Y002990D02*
X001122Y003054D01*
X001004Y003172D01*
X000940Y003326D01*
X000940Y003494D01*
X001004Y003648D01*
X001122Y003766D01*
X001276Y003830D01*
X002044Y003830D01*
X002198Y003766D01*
X002316Y003648D01*
X002380Y003494D01*
X002380Y003326D01*
X002316Y003172D01*
X002198Y003054D01*
X002044Y002990D01*
X001276Y002990D01*
X001180Y003030D02*
X000820Y003030D01*
X000820Y002912D02*
X002980Y002912D01*
X002980Y003030D02*
X002140Y003030D01*
X002133Y002793D02*
X002980Y002793D01*
X002980Y002675D02*
X002289Y002675D01*
X002354Y002556D02*
X002980Y002556D01*
X002980Y002438D02*
X002380Y002438D01*
X002377Y002319D02*
X002980Y002319D01*
X002980Y002201D02*
X002328Y002201D01*
X001700Y001845D02*
X001620Y001845D01*
X001620Y001727D02*
X001700Y001727D01*
X001700Y001608D02*
X001620Y001608D01*
X001620Y001490D02*
X001700Y001490D01*
X001620Y001371D02*
X000820Y001371D01*
X000901Y001370D02*
X000911Y001302D01*
X000934Y001233D01*
X000967Y001169D01*
X001009Y001110D01*
X001060Y001059D01*
X001119Y001017D01*
X001183Y000984D01*
X001252Y000961D01*
X001324Y000950D01*
X001620Y000950D01*
X001620Y001370D01*
X000901Y001370D01*
X000907Y001490D02*
X000820Y001490D01*
X000820Y001608D02*
X000945Y001608D01*
X001026Y001727D02*
X000820Y001727D01*
X000820Y001845D02*
X001210Y001845D01*
X000928Y001253D02*
X000820Y001253D01*
X000820Y001134D02*
X000992Y001134D01*
X001121Y001016D02*
X000820Y001016D01*
X000820Y000897D02*
X002793Y000897D01*
X003160Y001330D02*
X003160Y006410D01*
X002947Y006230D02*
X002340Y006230D01*
X002316Y006172D02*
X002380Y006326D01*
X002380Y006494D01*
X002316Y006648D01*
X002198Y006766D01*
X002044Y006830D01*
X001276Y006830D01*
X001122Y006766D01*
X001004Y006648D01*
X000940Y006494D01*
X000940Y006326D01*
X001004Y006172D01*
X001122Y006054D01*
X001276Y005990D01*
X002044Y005990D01*
X002198Y006054D01*
X002316Y006172D01*
X002255Y006111D02*
X002980Y006111D01*
X002980Y005993D02*
X002050Y005993D01*
X002044Y005830D02*
X002198Y005766D01*
X002316Y005648D01*
X002380Y005494D01*
X002380Y005326D01*
X002316Y005172D01*
X002198Y005054D01*
X002044Y004990D01*
X001276Y004990D01*
X001122Y005054D01*
X001004Y005172D01*
X000940Y005326D01*
X000940Y005494D01*
X001004Y005648D01*
X001122Y005766D01*
X001276Y005830D01*
X002044Y005830D01*
X002208Y005756D02*
X002980Y005756D01*
X002980Y005874D02*
X000820Y005874D01*
X000820Y005756D02*
X001112Y005756D01*
X000999Y005637D02*
X000820Y005637D01*
X000820Y005519D02*
X000950Y005519D01*
X000940Y005400D02*
X000820Y005400D01*
X000820Y005282D02*
X000959Y005282D01*
X001013Y005163D02*
X000820Y005163D01*
X000820Y005045D02*
X001145Y005045D01*
X001222Y004808D02*
X000820Y004808D01*
X000820Y004926D02*
X002980Y004926D01*
X002980Y004808D02*
X002098Y004808D01*
X002044Y004830D02*
X002198Y004766D01*
X002316Y004648D01*
X002380Y004494D01*
X002380Y004326D01*
X002316Y004172D01*
X002198Y004054D01*
X002044Y003990D01*
X001276Y003990D01*
X001122Y004054D01*
X001004Y004172D01*
X000940Y004326D01*
X000940Y004494D01*
X001004Y004648D01*
X001122Y004766D01*
X001276Y004830D01*
X002044Y004830D01*
X002175Y005045D02*
X002980Y005045D01*
X002980Y005163D02*
X002307Y005163D01*
X002361Y005282D02*
X002980Y005282D01*
X002980Y005400D02*
X002380Y005400D01*
X002370Y005519D02*
X002980Y005519D01*
X002980Y005637D02*
X002321Y005637D01*
X002380Y006348D02*
X002884Y006348D01*
X002882Y006467D02*
X002380Y006467D01*
X002342Y006585D02*
X002941Y006585D01*
X003379Y006585D02*
X003480Y006585D01*
X003480Y006467D02*
X003438Y006467D01*
X003436Y006348D02*
X003480Y006348D01*
X003480Y006230D02*
X003373Y006230D01*
X003340Y006111D02*
X003480Y006111D01*
X003480Y005993D02*
X003340Y005993D01*
X003340Y005874D02*
X003480Y005874D01*
X003480Y005756D02*
X003340Y005756D01*
X003340Y005637D02*
X003480Y005637D01*
X003480Y005519D02*
X003340Y005519D01*
X003340Y005400D02*
X003480Y005400D01*
X003480Y005282D02*
X003340Y005282D01*
X003340Y005163D02*
X003480Y005163D01*
X003480Y005045D02*
X003340Y005045D01*
X003340Y004926D02*
X003480Y004926D01*
X003480Y004808D02*
X003340Y004808D01*
X003340Y004689D02*
X003480Y004689D01*
X003480Y004571D02*
X003340Y004571D01*
X003340Y004452D02*
X003480Y004452D01*
X003480Y004334D02*
X003340Y004334D01*
X003340Y004215D02*
X003480Y004215D01*
X003480Y004097D02*
X003340Y004097D01*
X003340Y003978D02*
X003480Y003978D01*
X003480Y003860D02*
X003340Y003860D01*
X003340Y003741D02*
X003480Y003741D01*
X003480Y003623D02*
X003340Y003623D01*
X003340Y003504D02*
X003480Y003504D01*
X003480Y003386D02*
X003340Y003386D01*
X003340Y003267D02*
X003480Y003267D01*
X003480Y003224D02*
X003424Y003168D01*
X003382Y003065D01*
X003382Y002955D01*
X003424Y002852D01*
X003502Y002774D01*
X003605Y002732D01*
X003715Y002732D01*
X003818Y002774D01*
X003896Y002852D01*
X003938Y002955D01*
X003938Y003065D01*
X003896Y003168D01*
X003840Y003224D01*
X003840Y006935D01*
X003299Y007475D01*
X004475Y007475D01*
X004546Y007546D01*
X004546Y008275D01*
X004475Y008345D01*
X004366Y008345D01*
X004397Y008376D01*
X004440Y008479D01*
X004440Y008591D01*
X004397Y008694D01*
X004319Y008772D01*
X004216Y008815D01*
X004104Y008815D01*
X004001Y008772D01*
X003598Y008369D01*
X003588Y008345D01*
X003195Y008345D01*
X003124Y008275D01*
X003124Y008217D01*
X003065Y008276D01*
X003065Y010044D01*
X003151Y010130D01*
X003180Y010130D01*
X003124Y010074D01*
X003124Y009345D01*
X003195Y009275D01*
X003630Y009275D01*
X003630Y009229D01*
X003673Y009126D01*
X003798Y009001D01*
X003876Y008923D01*
X003979Y008880D01*
X004544Y008880D01*
X004630Y008794D01*
X004630Y007479D01*
X004673Y007376D01*
X004923Y007126D01*
X005001Y007048D01*
X005104Y007005D01*
X005169Y007005D01*
X005169Y006570D01*
X005584Y006570D01*
X005584Y006885D01*
X005573Y006926D01*
X005552Y006963D01*
X005522Y006992D01*
X005500Y007005D01*
X007294Y007005D01*
X007530Y006769D01*
X007530Y004854D01*
X007573Y004751D01*
X007630Y004694D01*
X007630Y003135D01*
X006935Y002440D01*
X006686Y002440D01*
X006686Y002750D01*
X006271Y002750D01*
X006271Y002870D01*
X006686Y002870D01*
X006686Y003185D01*
X006675Y003226D01*
X006654Y003263D01*
X006624Y003292D01*
X006588Y003313D01*
X006547Y003324D01*
X006482Y003324D01*
X006528Y003370D01*
X006528Y004218D01*
X006458Y004288D01*
X005807Y004288D01*
X005737Y004218D01*
X005737Y003534D01*
X005665Y003563D01*
X005603Y003563D01*
X005583Y003585D01*
X005583Y004218D01*
X005513Y004288D01*
X004862Y004288D01*
X004792Y004218D01*
X004792Y003370D01*
X004862Y003300D01*
X004929Y003300D01*
X004929Y003284D01*
X004744Y003284D01*
X004674Y003214D01*
X004674Y002406D01*
X004744Y002336D01*
X005231Y002336D01*
X005230Y002335D01*
X004860Y001965D01*
X004380Y001965D01*
X004313Y001897D01*
X004247Y001925D01*
X004073Y001925D01*
X003914Y001859D01*
X003791Y001736D01*
X003725Y001577D01*
X003725Y001403D01*
X003791Y001244D01*
X003914Y001121D01*
X004073Y001055D01*
X004247Y001055D01*
X004406Y001121D01*
X004529Y001244D01*
X004595Y001403D01*
X004595Y001577D01*
X004583Y001605D01*
X004773Y001605D01*
X004754Y001579D01*
X004720Y001512D01*
X004697Y001441D01*
X004686Y001375D01*
X005115Y001375D01*
X005115Y001285D01*
X005205Y001285D01*
X005205Y001375D01*
X005634Y001375D01*
X005623Y001441D01*
X005600Y001512D01*
X005566Y001579D01*
X005528Y001632D01*
X005565Y001632D01*
X005668Y001674D01*
X005746Y001752D01*
X005788Y001855D01*
X005788Y001865D01*
X005929Y001865D01*
X005914Y001859D01*
X005791Y001736D01*
X005725Y001577D01*
X005725Y001403D01*
X005791Y001244D01*
X005914Y001121D01*
X006073Y001055D01*
X006247Y001055D01*
X006406Y001121D01*
X006529Y001244D01*
X006595Y001403D01*
X006595Y001577D01*
X006529Y001736D01*
X006406Y001859D01*
X006391Y001865D01*
X007155Y001865D01*
X007255Y001965D01*
X008105Y002815D01*
X008205Y002915D01*
X008205Y003665D01*
X008930Y004390D01*
X008930Y005280D01*
X008830Y005380D01*
X008830Y008132D01*
X008840Y008132D01*
X008943Y008174D01*
X008985Y008217D01*
X009004Y008172D01*
X009122Y008054D01*
X009276Y007990D01*
X010044Y007990D01*
X010198Y008054D01*
X010316Y008172D01*
X010380Y008326D01*
X010380Y008494D01*
X010316Y008648D01*
X010198Y008766D01*
X010044Y008830D01*
X009276Y008830D01*
X009122Y008766D01*
X009004Y008648D01*
X008985Y008603D01*
X008943Y008646D01*
X008840Y008688D01*
X008730Y008688D01*
X008627Y008646D01*
X008590Y008609D01*
X008590Y010360D01*
X008187Y010763D01*
X008187Y012082D01*
X008192Y012088D01*
X008187Y012155D01*
X008187Y012223D01*
X008181Y012228D01*
X008181Y012236D01*
X008129Y012280D01*
X008082Y012328D01*
X008074Y012328D01*
X007532Y012792D01*
X007485Y012840D01*
X007477Y012840D01*
X007471Y012845D01*
X007403Y012840D01*
X006710Y012840D01*
X006323Y012453D01*
X006278Y012561D01*
X006178Y012661D01*
X006046Y012716D01*
X005904Y012716D01*
X005772Y012661D01*
X005672Y012561D01*
X005660Y012533D01*
X005648Y012561D01*
X005548Y012661D01*
X005416Y012716D01*
X005274Y012716D01*
X005142Y012661D01*
X005042Y012561D01*
X005004Y012470D01*
X004660Y012815D01*
X003835Y012815D01*
X003130Y012110D01*
X003130Y011285D01*
X002368Y010523D01*
X002316Y010648D01*
X002198Y010766D01*
X002044Y010830D01*
X001276Y010830D01*
X001122Y010766D01*
X001004Y010648D01*
X000940Y010494D01*
X000940Y010326D01*
X001004Y010172D01*
X001122Y010054D01*
X001276Y009990D01*
X002044Y009990D01*
X002198Y010054D01*
X002280Y010136D01*
X002280Y009684D01*
X002198Y009766D01*
X002044Y009830D01*
X001276Y009830D01*
X001122Y009766D01*
X001004Y009648D01*
X000940Y009494D01*
X000940Y009326D01*
X001004Y009172D01*
X001122Y009054D01*
X001276Y008990D01*
X002044Y008990D01*
X002198Y009054D01*
X002280Y009136D01*
X002280Y008684D01*
X002198Y008766D01*
X002044Y008830D01*
X001276Y008830D01*
X001122Y008766D01*
X001004Y008648D01*
X000940Y008494D01*
X000940Y008326D01*
X001004Y008172D01*
X001122Y008054D01*
X001276Y007990D01*
X002044Y007990D01*
X002198Y008054D01*
X002280Y008136D01*
X002280Y007985D01*
X002385Y007880D01*
X003480Y006785D01*
X003480Y003224D01*
X003416Y003149D02*
X003340Y003149D01*
X003340Y003030D02*
X003382Y003030D01*
X003399Y002912D02*
X003340Y002912D01*
X003340Y002793D02*
X003483Y002793D01*
X003340Y002675D02*
X004674Y002675D01*
X004674Y002793D02*
X003837Y002793D01*
X003921Y002912D02*
X004674Y002912D01*
X004674Y003030D02*
X003938Y003030D01*
X003904Y003149D02*
X004674Y003149D01*
X004727Y003267D02*
X003840Y003267D01*
X003840Y003386D02*
X004792Y003386D01*
X004792Y003504D02*
X003840Y003504D01*
X003840Y003623D02*
X004792Y003623D01*
X004792Y003741D02*
X003840Y003741D01*
X003840Y003860D02*
X004792Y003860D01*
X004792Y003978D02*
X003840Y003978D01*
X003840Y004097D02*
X004792Y004097D01*
X004792Y004215D02*
X003840Y004215D01*
X003840Y004334D02*
X007630Y004334D01*
X007630Y004452D02*
X005221Y004452D01*
X005249Y004480D02*
X005735Y004480D01*
X006110Y004855D01*
X006215Y004960D01*
X006215Y005032D01*
X006458Y005032D01*
X006528Y005102D01*
X006528Y005950D01*
X006458Y006020D01*
X006312Y006020D01*
X006312Y006036D01*
X006576Y006036D01*
X006646Y006106D01*
X006646Y006914D01*
X006576Y006984D01*
X005847Y006984D01*
X005776Y006914D01*
X005776Y006106D01*
X005847Y006036D01*
X005952Y006036D01*
X005952Y006020D01*
X005807Y006020D01*
X005737Y005950D01*
X005737Y005102D01*
X005792Y005047D01*
X005585Y004840D01*
X005249Y004840D01*
X005193Y004896D01*
X005090Y004938D01*
X004980Y004938D01*
X004877Y004896D01*
X004799Y004818D01*
X004757Y004715D01*
X004757Y004605D01*
X004799Y004502D01*
X004877Y004424D01*
X004980Y004382D01*
X005090Y004382D01*
X005193Y004424D01*
X005249Y004480D01*
X005035Y004660D02*
X005660Y004660D01*
X006035Y005035D01*
X006035Y005429D01*
X006132Y005526D01*
X006132Y006581D01*
X006211Y006510D01*
X005776Y006467D02*
X005169Y006467D01*
X005169Y006450D02*
X005169Y006570D01*
X005049Y006570D01*
X005049Y007024D01*
X004773Y007024D01*
X004732Y007013D01*
X004696Y006992D01*
X004666Y006963D01*
X004645Y006926D01*
X004634Y006885D01*
X004634Y006570D01*
X005049Y006570D01*
X005049Y006450D01*
X004634Y006450D01*
X004634Y006135D01*
X004645Y006094D01*
X004666Y006057D01*
X004696Y006028D01*
X004732Y006007D01*
X004773Y005996D01*
X004838Y005996D01*
X004792Y005950D01*
X004792Y005102D01*
X004862Y005032D01*
X005513Y005032D01*
X005583Y005102D01*
X005583Y005950D01*
X005513Y006020D01*
X005509Y006020D01*
X005522Y006028D01*
X005552Y006057D01*
X005573Y006094D01*
X005584Y006135D01*
X005584Y006450D01*
X005169Y006450D01*
X005049Y006467D02*
X003840Y006467D01*
X003840Y006585D02*
X004634Y006585D01*
X004634Y006704D02*
X003840Y006704D01*
X003840Y006822D02*
X004634Y006822D01*
X004653Y006941D02*
X003834Y006941D01*
X003716Y007059D02*
X004990Y007059D01*
X005049Y006941D02*
X005169Y006941D01*
X005169Y006822D02*
X005049Y006822D01*
X005049Y006704D02*
X005169Y006704D01*
X005169Y006585D02*
X005049Y006585D01*
X004835Y005993D02*
X003840Y005993D01*
X003840Y006111D02*
X004640Y006111D01*
X004634Y006230D02*
X003840Y006230D01*
X003840Y006348D02*
X004634Y006348D01*
X004792Y005874D02*
X003840Y005874D01*
X003840Y005756D02*
X004792Y005756D01*
X004792Y005637D02*
X003840Y005637D01*
X003840Y005519D02*
X004792Y005519D01*
X004792Y005400D02*
X003840Y005400D01*
X003840Y005282D02*
X004792Y005282D01*
X004792Y005163D02*
X003840Y005163D01*
X003840Y005045D02*
X004850Y005045D01*
X004950Y004926D02*
X003840Y004926D01*
X003840Y004808D02*
X004795Y004808D01*
X004757Y004689D02*
X003840Y004689D01*
X003840Y004571D02*
X004771Y004571D01*
X004849Y004452D02*
X003840Y004452D01*
X002980Y004452D02*
X002380Y004452D01*
X002380Y004334D02*
X002980Y004334D01*
X002980Y004215D02*
X002334Y004215D01*
X002240Y004097D02*
X002980Y004097D01*
X002980Y003978D02*
X000820Y003978D01*
X000820Y003860D02*
X002980Y003860D01*
X002980Y003741D02*
X002223Y003741D01*
X002327Y003623D02*
X002980Y003623D01*
X002980Y003504D02*
X002376Y003504D01*
X002380Y003386D02*
X002980Y003386D01*
X002980Y003267D02*
X002355Y003267D01*
X002292Y003149D02*
X002980Y003149D01*
X003340Y002556D02*
X004674Y002556D01*
X004674Y002438D02*
X003340Y002438D01*
X003340Y002319D02*
X005214Y002319D01*
X005096Y002201D02*
X003340Y002201D01*
X003340Y002082D02*
X004977Y002082D01*
X004935Y001785D02*
X005410Y002260D01*
X007010Y002260D01*
X007810Y003060D01*
X007810Y004910D01*
X007549Y004808D02*
X006062Y004808D01*
X006181Y004926D02*
X007530Y004926D01*
X007530Y005045D02*
X006470Y005045D01*
X006528Y005163D02*
X007530Y005163D01*
X007530Y005282D02*
X006528Y005282D01*
X006528Y005400D02*
X007530Y005400D01*
X007530Y005519D02*
X006528Y005519D01*
X006528Y005637D02*
X007530Y005637D01*
X007530Y005756D02*
X006528Y005756D01*
X006528Y005874D02*
X007530Y005874D01*
X007530Y005993D02*
X006485Y005993D01*
X006646Y006111D02*
X007530Y006111D01*
X007530Y006230D02*
X006646Y006230D01*
X006646Y006348D02*
X007530Y006348D01*
X007530Y006467D02*
X006646Y006467D01*
X006646Y006585D02*
X007530Y006585D01*
X007530Y006704D02*
X006646Y006704D01*
X006646Y006822D02*
X007477Y006822D01*
X007359Y006941D02*
X006620Y006941D01*
X005803Y006941D02*
X005565Y006941D01*
X005584Y006822D02*
X005776Y006822D01*
X005776Y006704D02*
X005584Y006704D01*
X005584Y006585D02*
X005776Y006585D01*
X005776Y006348D02*
X005584Y006348D01*
X005584Y006230D02*
X005776Y006230D01*
X005776Y006111D02*
X005577Y006111D01*
X005540Y005993D02*
X005779Y005993D01*
X005737Y005874D02*
X005583Y005874D01*
X005583Y005756D02*
X005737Y005756D01*
X005737Y005637D02*
X005583Y005637D01*
X005583Y005519D02*
X005737Y005519D01*
X005737Y005400D02*
X005583Y005400D01*
X005583Y005282D02*
X005737Y005282D01*
X005737Y005163D02*
X005583Y005163D01*
X005525Y005045D02*
X005790Y005045D01*
X005671Y004926D02*
X005120Y004926D01*
X005583Y004215D02*
X005737Y004215D01*
X005737Y004097D02*
X005583Y004097D01*
X005583Y003978D02*
X005737Y003978D01*
X005737Y003860D02*
X005583Y003860D01*
X005583Y003741D02*
X005737Y003741D01*
X005737Y003623D02*
X005583Y003623D01*
X005610Y003285D02*
X005188Y003757D01*
X005188Y003794D01*
X005109Y003715D01*
X005109Y002810D01*
X005544Y002793D02*
X006151Y002793D01*
X006151Y002750D02*
X006151Y002870D01*
X005736Y002870D01*
X005736Y003036D01*
X005665Y003007D01*
X005555Y003007D01*
X005544Y003011D01*
X005544Y002440D01*
X005736Y002440D01*
X005736Y002750D01*
X006151Y002750D01*
X006271Y002793D02*
X007288Y002793D01*
X007170Y002675D02*
X006686Y002675D01*
X006686Y002556D02*
X007051Y002556D01*
X007407Y002912D02*
X006686Y002912D01*
X006686Y003030D02*
X007525Y003030D01*
X007630Y003149D02*
X006686Y003149D01*
X006650Y003267D02*
X007630Y003267D01*
X007630Y003386D02*
X006528Y003386D01*
X006528Y003504D02*
X007630Y003504D01*
X007630Y003623D02*
X006528Y003623D01*
X006528Y003741D02*
X007630Y003741D01*
X007630Y003860D02*
X006528Y003860D01*
X006528Y003978D02*
X007630Y003978D01*
X007630Y004097D02*
X006528Y004097D01*
X006528Y004215D02*
X007630Y004215D01*
X007630Y004571D02*
X005825Y004571D01*
X005944Y004689D02*
X007630Y004689D01*
X008160Y004535D02*
X008160Y010160D01*
X007785Y010535D01*
X007035Y010535D01*
X007249Y010355D02*
X007193Y010299D01*
X007090Y010257D01*
X006980Y010257D01*
X006877Y010299D01*
X006799Y010377D01*
X006273Y010377D01*
X006154Y010259D02*
X006975Y010259D01*
X007095Y010259D02*
X007807Y010259D01*
X007710Y010355D02*
X007980Y010085D01*
X007980Y010080D01*
X007944Y010101D01*
X007903Y010112D01*
X006722Y010112D01*
X006722Y008870D01*
X006602Y008870D01*
X006602Y010112D01*
X005420Y010112D01*
X005380Y010101D01*
X005343Y010080D01*
X005313Y010050D01*
X005292Y010013D01*
X005281Y009973D01*
X005281Y008870D01*
X006602Y008870D01*
X006602Y008750D01*
X005281Y008750D01*
X005281Y007647D01*
X005292Y007607D01*
X005313Y007570D01*
X005318Y007565D01*
X005276Y007565D01*
X005190Y007651D01*
X005190Y008966D01*
X005147Y009069D01*
X005069Y009147D01*
X004819Y009397D01*
X004716Y009440D01*
X004546Y009440D01*
X004546Y010074D01*
X004490Y010130D01*
X005966Y010130D01*
X006069Y010173D01*
X006147Y010251D01*
X006527Y010631D01*
X006552Y010690D01*
X006593Y010732D01*
X006648Y010863D01*
X006648Y011319D01*
X006685Y011282D01*
X006766Y011223D01*
X006854Y011178D01*
X006949Y011147D01*
X007037Y011134D01*
X007037Y011704D01*
X007157Y011704D01*
X007157Y011134D01*
X007245Y011147D01*
X007340Y011178D01*
X007428Y011223D01*
X007509Y011282D01*
X007579Y011352D01*
X007638Y011433D01*
X007683Y011522D01*
X007714Y011616D01*
X007728Y011704D01*
X007157Y011704D01*
X007157Y011824D01*
X007728Y011824D01*
X007714Y011912D01*
X007683Y012007D01*
X007638Y012096D01*
X007579Y012176D01*
X007509Y012247D01*
X007428Y012305D01*
X007340Y012350D01*
X007245Y012381D01*
X007157Y012395D01*
X007157Y011824D01*
X007037Y011824D01*
X007037Y011704D01*
X006502Y011704D01*
X006493Y011713D01*
X006361Y011768D01*
X006315Y011768D01*
X006333Y011811D01*
X006333Y011953D01*
X006860Y012480D01*
X007343Y012480D01*
X007827Y012065D01*
X007827Y010715D01*
X007249Y010715D01*
X007193Y010771D01*
X007090Y010813D01*
X006980Y010813D01*
X006877Y010771D01*
X006799Y010693D01*
X006757Y010590D01*
X006757Y010480D01*
X006799Y010377D01*
X006757Y010496D02*
X006391Y010496D01*
X006510Y010614D02*
X006766Y010614D01*
X006839Y010733D02*
X006594Y010733D01*
X006643Y010851D02*
X007827Y010851D01*
X007827Y010733D02*
X007231Y010733D01*
X007249Y010355D02*
X007710Y010355D01*
X007925Y010140D02*
X005990Y010140D01*
X006602Y010022D02*
X006722Y010022D01*
X006722Y009903D02*
X006602Y009903D01*
X006602Y009785D02*
X006722Y009785D01*
X006722Y009666D02*
X006602Y009666D01*
X006602Y009548D02*
X006722Y009548D01*
X006722Y009429D02*
X006602Y009429D01*
X006602Y009311D02*
X006722Y009311D01*
X006722Y009192D02*
X006602Y009192D01*
X006602Y009074D02*
X006722Y009074D01*
X006722Y008955D02*
X006602Y008955D01*
X006602Y008837D02*
X005190Y008837D01*
X005190Y008955D02*
X005281Y008955D01*
X005281Y009074D02*
X005142Y009074D01*
X005024Y009192D02*
X005281Y009192D01*
X005281Y009311D02*
X004905Y009311D01*
X004742Y009429D02*
X005281Y009429D01*
X005281Y009548D02*
X004546Y009548D01*
X004546Y009666D02*
X005281Y009666D01*
X005281Y009785D02*
X004546Y009785D01*
X004546Y009903D02*
X005281Y009903D01*
X005297Y010022D02*
X004546Y010022D01*
X004715Y010690D02*
X003045Y010690D01*
X003385Y011030D01*
X003490Y011135D01*
X003490Y011960D01*
X003985Y012455D01*
X004510Y012455D01*
X004987Y011978D01*
X004987Y011811D01*
X004989Y011807D01*
X004914Y011793D01*
X004842Y011763D01*
X004776Y011719D01*
X004762Y011704D01*
X004283Y011704D01*
X004283Y011134D01*
X004371Y011147D01*
X004466Y011178D01*
X004554Y011223D01*
X004632Y011280D01*
X004632Y010895D01*
X004648Y010818D01*
X004678Y010746D01*
X004715Y010690D01*
X004687Y010733D02*
X003087Y010733D01*
X003206Y010851D02*
X004641Y010851D01*
X004632Y010970D02*
X003324Y010970D01*
X003443Y011088D02*
X004632Y011088D01*
X004632Y011207D02*
X004521Y011207D01*
X004283Y011207D02*
X004163Y011207D01*
X004163Y011134D02*
X004075Y011147D01*
X003980Y011178D01*
X003892Y011223D01*
X003811Y011282D01*
X003741Y011352D01*
X003682Y011433D01*
X003637Y011522D01*
X003606Y011616D01*
X003592Y011704D01*
X004163Y011704D01*
X004283Y011704D01*
X004283Y011824D01*
X004854Y011824D01*
X004840Y011912D01*
X004809Y012007D01*
X004764Y012096D01*
X004705Y012176D01*
X004635Y012247D01*
X004554Y012305D01*
X004466Y012350D01*
X004371Y012381D01*
X004283Y012395D01*
X004283Y011824D01*
X004163Y011824D01*
X004163Y011704D01*
X004163Y011134D01*
X004163Y011325D02*
X004283Y011325D01*
X004283Y011444D02*
X004163Y011444D01*
X004163Y011562D02*
X004283Y011562D01*
X004283Y011681D02*
X004163Y011681D01*
X004163Y011799D02*
X003490Y011799D01*
X003592Y011824D02*
X004163Y011824D01*
X004163Y012395D01*
X004075Y012381D01*
X003980Y012350D01*
X003892Y012305D01*
X003811Y012247D01*
X003741Y012176D01*
X003682Y012096D01*
X003637Y012007D01*
X003606Y011912D01*
X003592Y011824D01*
X003608Y011918D02*
X003490Y011918D01*
X003566Y012036D02*
X003652Y012036D01*
X003684Y012155D02*
X003725Y012155D01*
X003803Y012273D02*
X003847Y012273D01*
X003921Y012392D02*
X004140Y012392D01*
X004163Y012392D02*
X004283Y012392D01*
X004306Y012392D02*
X004574Y012392D01*
X004599Y012273D02*
X004692Y012273D01*
X004721Y012155D02*
X004811Y012155D01*
X004794Y012036D02*
X004929Y012036D01*
X004987Y011918D02*
X004838Y011918D01*
X004947Y011799D02*
X004283Y011799D01*
X004283Y011918D02*
X004163Y011918D01*
X004163Y012036D02*
X004283Y012036D01*
X004283Y012155D02*
X004163Y012155D01*
X004163Y012273D02*
X004283Y012273D01*
X004585Y012635D02*
X003910Y012635D01*
X003310Y012035D01*
X003310Y011210D01*
X002460Y010360D01*
X002460Y008060D01*
X003660Y006860D01*
X003660Y003010D01*
X003340Y001964D02*
X004379Y001964D01*
X004455Y001785D02*
X004935Y001785D01*
X004712Y001490D02*
X004595Y001490D01*
X004582Y001371D02*
X005115Y001371D01*
X005115Y001285D02*
X004686Y001285D01*
X004697Y001219D01*
X004720Y001148D01*
X004754Y001081D01*
X004798Y001021D01*
X004851Y000968D01*
X004911Y000924D01*
X004978Y000890D01*
X005049Y000867D01*
X005115Y000856D01*
X005115Y001285D01*
X005115Y001253D02*
X005205Y001253D01*
X005205Y001285D02*
X005205Y000856D01*
X005271Y000867D01*
X005342Y000890D01*
X005409Y000924D01*
X005469Y000968D01*
X005522Y001021D01*
X005566Y001081D01*
X005600Y001148D01*
X005623Y001219D01*
X005634Y001285D01*
X005205Y001285D01*
X005205Y001371D02*
X005738Y001371D01*
X005725Y001490D02*
X005608Y001490D01*
X005545Y001608D02*
X005738Y001608D01*
X005720Y001727D02*
X005787Y001727D01*
X005784Y001845D02*
X005900Y001845D01*
X006420Y001845D02*
X007900Y001845D01*
X007914Y001859D02*
X007791Y001736D01*
X007725Y001577D01*
X007725Y001403D01*
X007791Y001244D01*
X007914Y001121D01*
X008073Y001055D01*
X008247Y001055D01*
X008406Y001121D01*
X008529Y001244D01*
X008595Y001403D01*
X008595Y001577D01*
X008529Y001736D01*
X008406Y001859D01*
X008247Y001925D01*
X008073Y001925D01*
X007914Y001859D01*
X007787Y001727D02*
X007339Y001727D01*
X007406Y001699D02*
X007247Y001765D01*
X007073Y001765D01*
X006914Y001699D01*
X006791Y001576D01*
X006725Y001417D01*
X006725Y001243D01*
X006791Y001084D01*
X006914Y000961D01*
X007073Y000895D01*
X007247Y000895D01*
X007406Y000961D01*
X007529Y001084D01*
X007595Y001243D01*
X007595Y001417D01*
X007529Y001576D01*
X007406Y001699D01*
X007497Y001608D02*
X007738Y001608D01*
X007725Y001490D02*
X007565Y001490D01*
X007595Y001371D02*
X007738Y001371D01*
X007788Y001253D02*
X007595Y001253D01*
X007550Y001134D02*
X007901Y001134D01*
X007461Y001016D02*
X009121Y001016D01*
X009119Y001017D02*
X009183Y000984D01*
X009252Y000961D01*
X009324Y000950D01*
X009620Y000950D01*
X009620Y001370D01*
X009700Y001370D01*
X009700Y001450D01*
X009620Y001450D01*
X009620Y001870D01*
X009324Y001870D01*
X009252Y001859D01*
X009183Y001836D01*
X009119Y001803D01*
X009060Y001761D01*
X009009Y001710D01*
X008967Y001651D01*
X008934Y001587D01*
X008911Y001518D01*
X008901Y001450D01*
X009620Y001450D01*
X009620Y001370D01*
X008901Y001370D01*
X008911Y001302D01*
X008934Y001233D01*
X008967Y001169D01*
X009009Y001110D01*
X009060Y001059D01*
X009119Y001017D01*
X008992Y001134D02*
X008419Y001134D01*
X008532Y001253D02*
X008928Y001253D01*
X008907Y001490D02*
X008595Y001490D01*
X008582Y001608D02*
X008945Y001608D01*
X009026Y001727D02*
X008533Y001727D01*
X008420Y001845D02*
X009210Y001845D01*
X009276Y001990D02*
X010044Y001990D01*
X010198Y002054D01*
X010316Y002172D01*
X010380Y002326D01*
X010380Y002494D01*
X010316Y002648D01*
X010198Y002766D01*
X010044Y002830D01*
X009276Y002830D01*
X009122Y002766D01*
X009004Y002648D01*
X008940Y002494D01*
X008940Y002326D01*
X009004Y002172D01*
X009122Y002054D01*
X009276Y001990D01*
X009094Y002082D02*
X007372Y002082D01*
X007255Y001965D02*
X007255Y001965D01*
X007254Y001964D02*
X010492Y001964D01*
X010492Y002082D02*
X010226Y002082D01*
X010328Y002201D02*
X010492Y002201D01*
X010492Y002319D02*
X010377Y002319D01*
X010380Y002438D02*
X010492Y002438D01*
X010492Y002556D02*
X010354Y002556D01*
X010289Y002675D02*
X010492Y002675D01*
X010492Y002793D02*
X010133Y002793D01*
X010044Y002990D02*
X010198Y003054D01*
X010316Y003172D01*
X010380Y003326D01*
X010380Y003494D01*
X010316Y003648D01*
X010198Y003766D01*
X010044Y003830D01*
X009276Y003830D01*
X009122Y003766D01*
X009004Y003648D01*
X008940Y003494D01*
X008940Y003326D01*
X009004Y003172D01*
X009122Y003054D01*
X009276Y002990D01*
X010044Y002990D01*
X010140Y003030D02*
X010492Y003030D01*
X010492Y002912D02*
X008202Y002912D01*
X008205Y003030D02*
X009180Y003030D01*
X009187Y002793D02*
X008083Y002793D01*
X007965Y002675D02*
X009031Y002675D01*
X008966Y002556D02*
X007846Y002556D01*
X007728Y002438D02*
X008940Y002438D01*
X008943Y002319D02*
X007609Y002319D01*
X007491Y002201D02*
X008992Y002201D01*
X009620Y001845D02*
X009700Y001845D01*
X009700Y001870D02*
X009700Y001450D01*
X010419Y001450D01*
X010409Y001518D01*
X010386Y001587D01*
X010353Y001651D01*
X010311Y001710D01*
X010260Y001761D01*
X010201Y001803D01*
X010137Y001836D01*
X010068Y001859D01*
X009996Y001870D01*
X009700Y001870D01*
X009700Y001727D02*
X009620Y001727D01*
X009620Y001608D02*
X009700Y001608D01*
X009700Y001490D02*
X009620Y001490D01*
X009620Y001371D02*
X008582Y001371D01*
X009620Y001253D02*
X009700Y001253D01*
X009700Y001370D02*
X009700Y000950D01*
X009996Y000950D01*
X010068Y000961D01*
X010137Y000984D01*
X010201Y001017D01*
X010260Y001059D01*
X010311Y001110D01*
X010353Y001169D01*
X010386Y001233D01*
X010409Y001302D01*
X010419Y001370D01*
X009700Y001370D01*
X009700Y001371D02*
X010492Y001371D01*
X010492Y001253D02*
X010392Y001253D01*
X010328Y001134D02*
X010492Y001134D01*
X010492Y001016D02*
X010199Y001016D01*
X010492Y000897D02*
X007251Y000897D01*
X007069Y000897D02*
X005356Y000897D01*
X005517Y001016D02*
X006859Y001016D01*
X006770Y001134D02*
X006419Y001134D01*
X006532Y001253D02*
X006725Y001253D01*
X006725Y001371D02*
X006582Y001371D01*
X006595Y001490D02*
X006755Y001490D01*
X006823Y001608D02*
X006582Y001608D01*
X006533Y001727D02*
X006981Y001727D01*
X005901Y001134D02*
X005593Y001134D01*
X005629Y001253D02*
X005788Y001253D01*
X005205Y001134D02*
X005115Y001134D01*
X005115Y001016D02*
X005205Y001016D01*
X005205Y000897D02*
X005115Y000897D01*
X004964Y000897D02*
X003527Y000897D01*
X003595Y001016D02*
X004803Y001016D01*
X004727Y001134D02*
X004419Y001134D01*
X004532Y001253D02*
X004691Y001253D01*
X004160Y001490D02*
X004455Y001785D01*
X003900Y001845D02*
X003340Y001845D01*
X003563Y001727D02*
X003787Y001727D01*
X003738Y001608D02*
X003595Y001608D01*
X003595Y001490D02*
X003725Y001490D01*
X003738Y001371D02*
X003595Y001371D01*
X003595Y001253D02*
X003788Y001253D01*
X003901Y001134D02*
X003595Y001134D01*
X001700Y001134D02*
X001620Y001134D01*
X001620Y001016D02*
X001700Y001016D01*
X001700Y001253D02*
X001620Y001253D01*
X000820Y000820D02*
X000820Y014370D01*
X010492Y014370D01*
X010492Y000820D01*
X000820Y000820D01*
X000820Y003149D02*
X001028Y003149D01*
X000965Y003267D02*
X000820Y003267D01*
X000820Y003386D02*
X000940Y003386D01*
X000944Y003504D02*
X000820Y003504D01*
X000820Y003623D02*
X000993Y003623D01*
X001097Y003741D02*
X000820Y003741D01*
X000820Y004097D02*
X001080Y004097D01*
X000986Y004215D02*
X000820Y004215D01*
X000820Y004334D02*
X000940Y004334D01*
X000940Y004452D02*
X000820Y004452D01*
X000820Y004571D02*
X000972Y004571D01*
X001045Y004689D02*
X000820Y004689D01*
X000820Y005993D02*
X001270Y005993D01*
X001065Y006111D02*
X000820Y006111D01*
X000820Y006230D02*
X000980Y006230D01*
X000940Y006348D02*
X000820Y006348D01*
X000820Y006467D02*
X000940Y006467D01*
X000978Y006585D02*
X000820Y006585D01*
X000820Y006704D02*
X001060Y006704D01*
X001257Y006822D02*
X000820Y006822D01*
X000820Y006941D02*
X003325Y006941D01*
X003206Y007059D02*
X002203Y007059D01*
X002198Y007054D02*
X002316Y007172D01*
X002380Y007326D01*
X002380Y007494D01*
X002316Y007648D01*
X002198Y007766D01*
X002044Y007830D01*
X001276Y007830D01*
X001122Y007766D01*
X001004Y007648D01*
X000940Y007494D01*
X000940Y007326D01*
X001004Y007172D01*
X001122Y007054D01*
X001276Y006990D01*
X002044Y006990D01*
X002198Y007054D01*
X002318Y007178D02*
X003088Y007178D01*
X002969Y007296D02*
X002367Y007296D01*
X002380Y007415D02*
X002851Y007415D01*
X002732Y007533D02*
X002364Y007533D01*
X002312Y007652D02*
X002614Y007652D01*
X002495Y007770D02*
X002188Y007770D01*
X002377Y007889D02*
X000820Y007889D01*
X000820Y008007D02*
X001235Y008007D01*
X001051Y008126D02*
X000820Y008126D01*
X000820Y008244D02*
X000974Y008244D01*
X000940Y008363D02*
X000820Y008363D01*
X000820Y008481D02*
X000940Y008481D01*
X000984Y008600D02*
X000820Y008600D01*
X000820Y008718D02*
X001074Y008718D01*
X000820Y008837D02*
X002280Y008837D01*
X002280Y008955D02*
X000820Y008955D01*
X000820Y009074D02*
X001103Y009074D01*
X000996Y009192D02*
X000820Y009192D01*
X000820Y009311D02*
X000947Y009311D01*
X000940Y009429D02*
X000820Y009429D01*
X000820Y009548D02*
X000962Y009548D01*
X001022Y009666D02*
X000820Y009666D01*
X000820Y009785D02*
X001167Y009785D01*
X001200Y010022D02*
X000820Y010022D01*
X000820Y010140D02*
X001036Y010140D01*
X000968Y010259D02*
X000820Y010259D01*
X000820Y010377D02*
X000940Y010377D01*
X000941Y010496D02*
X000820Y010496D01*
X000820Y010614D02*
X000990Y010614D01*
X001089Y010733D02*
X000820Y010733D01*
X000820Y010851D02*
X002696Y010851D01*
X002578Y010733D02*
X002231Y010733D01*
X002330Y010614D02*
X002459Y010614D01*
X002815Y010970D02*
X000820Y010970D01*
X000820Y011088D02*
X002933Y011088D01*
X003052Y011207D02*
X000820Y011207D01*
X000820Y011325D02*
X003130Y011325D01*
X003130Y011444D02*
X000820Y011444D01*
X000820Y011562D02*
X003130Y011562D01*
X003130Y011681D02*
X000820Y011681D01*
X000820Y011799D02*
X003130Y011799D01*
X003130Y011918D02*
X000820Y011918D01*
X000820Y012036D02*
X003130Y012036D01*
X003175Y012155D02*
X000820Y012155D01*
X000820Y012273D02*
X003293Y012273D01*
X003412Y012392D02*
X000820Y012392D01*
X000820Y012510D02*
X003530Y012510D01*
X003649Y012629D02*
X000820Y012629D01*
X000820Y012747D02*
X001115Y012747D01*
X001114Y012749D02*
X001120Y012731D01*
X001129Y012714D01*
X001140Y012698D01*
X001153Y012685D01*
X001168Y012674D01*
X001185Y012665D01*
X001203Y012660D01*
X001222Y012657D01*
X003103Y012657D01*
X003121Y012660D01*
X003139Y012665D01*
X003156Y012674D01*
X003172Y012685D01*
X003185Y012698D01*
X003196Y012714D01*
X003205Y012731D01*
X003210Y012749D01*
X003213Y012767D01*
X003213Y014053D01*
X003210Y014071D01*
X003205Y014089D01*
X003196Y014106D01*
X003185Y014122D01*
X003172Y014135D01*
X003156Y014146D01*
X003139Y014155D01*
X003121Y014160D01*
X003103Y014163D01*
X001222Y014163D01*
X001203Y014160D01*
X001185Y014155D01*
X001168Y014146D01*
X001153Y014135D01*
X001140Y014122D01*
X001129Y014106D01*
X001120Y014089D01*
X001114Y014071D01*
X001111Y014053D01*
X001111Y012767D01*
X001114Y012749D01*
X001111Y012866D02*
X000820Y012866D01*
X000820Y012984D02*
X001111Y012984D01*
X001111Y013103D02*
X000820Y013103D01*
X000820Y013221D02*
X001111Y013221D01*
X001111Y013340D02*
X000820Y013340D01*
X000820Y013458D02*
X001111Y013458D01*
X001111Y013577D02*
X000820Y013577D01*
X000820Y013695D02*
X001111Y013695D01*
X001111Y013814D02*
X000820Y013814D01*
X000820Y013932D02*
X001111Y013932D01*
X001111Y014051D02*
X000820Y014051D01*
X000820Y014169D02*
X003956Y014169D01*
X003980Y014181D02*
X003892Y014136D01*
X003811Y014077D01*
X003741Y014007D01*
X003682Y013927D01*
X003637Y013838D01*
X003606Y013743D01*
X003592Y013655D01*
X004163Y013655D01*
X004163Y013535D01*
X004283Y013535D01*
X004283Y012964D01*
X004371Y012978D01*
X004466Y013009D01*
X004554Y013054D01*
X004635Y013113D01*
X004705Y013183D01*
X004764Y013264D01*
X004809Y013352D01*
X004840Y013447D01*
X004854Y013535D01*
X004283Y013535D01*
X004283Y013655D01*
X004854Y013655D01*
X004840Y013743D01*
X004809Y013838D01*
X004764Y013927D01*
X004705Y014007D01*
X004635Y014077D01*
X004554Y014136D01*
X004466Y014181D01*
X004371Y014212D01*
X004283Y014226D01*
X004283Y013655D01*
X004163Y013655D01*
X004163Y014226D01*
X004075Y014212D01*
X003980Y014181D01*
X004163Y014169D02*
X004283Y014169D01*
X004283Y014051D02*
X004163Y014051D01*
X004163Y013932D02*
X004283Y013932D01*
X004283Y013814D02*
X004163Y013814D01*
X004163Y013695D02*
X004283Y013695D01*
X004283Y013577D02*
X007037Y013577D01*
X007037Y013535D02*
X006466Y013535D01*
X006480Y013447D01*
X006511Y013352D01*
X006556Y013264D01*
X006615Y013183D01*
X006685Y013113D01*
X006766Y013054D01*
X006854Y013009D01*
X006949Y012978D01*
X007037Y012964D01*
X007037Y013535D01*
X007157Y013535D01*
X007157Y012964D01*
X007245Y012978D01*
X007340Y013009D01*
X007428Y013054D01*
X007509Y013113D01*
X007579Y013183D01*
X007638Y013264D01*
X007683Y013352D01*
X007714Y013447D01*
X007728Y013535D01*
X007157Y013535D01*
X007157Y013655D01*
X007728Y013655D01*
X007714Y013743D01*
X007683Y013838D01*
X007638Y013927D01*
X007579Y014007D01*
X007509Y014077D01*
X007428Y014136D01*
X007340Y014181D01*
X007245Y014212D01*
X007157Y014226D01*
X007157Y013655D01*
X007037Y013655D01*
X007037Y013535D01*
X007037Y013458D02*
X007157Y013458D01*
X007157Y013340D02*
X007037Y013340D01*
X007037Y013221D02*
X007157Y013221D01*
X007157Y013103D02*
X007037Y013103D01*
X007037Y012984D02*
X007157Y012984D01*
X007263Y012984D02*
X010492Y012984D01*
X010492Y012866D02*
X003213Y012866D01*
X003213Y012984D02*
X004057Y012984D01*
X004075Y012978D02*
X004163Y012964D01*
X004163Y013535D01*
X003592Y013535D01*
X003606Y013447D01*
X003637Y013352D01*
X003682Y013264D01*
X003741Y013183D01*
X003811Y013113D01*
X003892Y013054D01*
X003980Y013009D01*
X004075Y012978D01*
X004163Y012984D02*
X004283Y012984D01*
X004389Y012984D02*
X006931Y012984D01*
X006699Y013103D02*
X004621Y013103D01*
X004733Y013221D02*
X006587Y013221D01*
X006517Y013340D02*
X004803Y013340D01*
X004842Y013458D02*
X006478Y013458D01*
X006466Y013655D02*
X007037Y013655D01*
X007037Y014226D01*
X006949Y014212D01*
X006854Y014181D01*
X006766Y014136D01*
X006685Y014077D01*
X006615Y014007D01*
X006556Y013927D01*
X006511Y013838D01*
X006480Y013743D01*
X006466Y013655D01*
X006473Y013695D02*
X004847Y013695D01*
X004817Y013814D02*
X006503Y013814D01*
X006560Y013932D02*
X004760Y013932D01*
X004662Y014051D02*
X006658Y014051D01*
X006830Y014169D02*
X004490Y014169D01*
X004163Y013577D02*
X003213Y013577D01*
X003213Y013695D02*
X003599Y013695D01*
X003629Y013814D02*
X003213Y013814D01*
X003213Y013932D02*
X003686Y013932D01*
X003784Y014051D02*
X003213Y014051D01*
X003213Y013458D02*
X003604Y013458D01*
X003643Y013340D02*
X003213Y013340D01*
X003213Y013221D02*
X003713Y013221D01*
X003825Y013103D02*
X003213Y013103D01*
X003210Y012747D02*
X003767Y012747D01*
X004163Y013103D02*
X004283Y013103D01*
X004283Y013221D02*
X004163Y013221D01*
X004163Y013340D02*
X004283Y013340D01*
X004283Y013458D02*
X004163Y013458D01*
X004728Y012747D02*
X006617Y012747D01*
X006499Y012629D02*
X006210Y012629D01*
X006299Y012510D02*
X006380Y012510D01*
X006653Y012273D02*
X006721Y012273D01*
X006685Y012247D02*
X006766Y012305D01*
X006854Y012350D01*
X006949Y012381D01*
X007037Y012395D01*
X007037Y011824D01*
X006466Y011824D01*
X006480Y011912D01*
X006511Y012007D01*
X006556Y012096D01*
X006615Y012176D01*
X006685Y012247D01*
X006599Y012155D02*
X006534Y012155D01*
X006526Y012036D02*
X006416Y012036D01*
X006482Y011918D02*
X006333Y011918D01*
X006328Y011799D02*
X007037Y011799D01*
X007037Y011681D02*
X007157Y011681D01*
X007157Y011799D02*
X007827Y011799D01*
X007827Y011681D02*
X007724Y011681D01*
X007696Y011562D02*
X007827Y011562D01*
X007827Y011444D02*
X007643Y011444D01*
X007552Y011325D02*
X007827Y011325D01*
X007827Y011207D02*
X007395Y011207D01*
X007157Y011207D02*
X007037Y011207D01*
X007037Y011325D02*
X007157Y011325D01*
X007157Y011444D02*
X007037Y011444D01*
X007037Y011562D02*
X007157Y011562D01*
X007157Y011918D02*
X007037Y011918D01*
X007037Y012036D02*
X007157Y012036D01*
X007157Y012155D02*
X007037Y012155D01*
X007037Y012273D02*
X007157Y012273D01*
X007157Y012392D02*
X007037Y012392D01*
X007014Y012392D02*
X006771Y012392D01*
X006785Y012660D02*
X006007Y011882D01*
X005975Y011882D01*
X005345Y011882D02*
X005338Y011882D01*
X004585Y012635D01*
X004846Y012629D02*
X005110Y012629D01*
X005021Y012510D02*
X004965Y012510D01*
X005581Y012629D02*
X005739Y012629D01*
X006785Y012660D02*
X007410Y012660D01*
X008007Y012148D01*
X008007Y010688D01*
X008410Y010285D01*
X008410Y005060D01*
X008485Y004985D01*
X008160Y004535D02*
X008285Y004410D01*
X008637Y004097D02*
X009080Y004097D01*
X009122Y004054D02*
X009276Y003990D01*
X010044Y003990D01*
X010198Y004054D01*
X010316Y004172D01*
X010380Y004326D01*
X010380Y004494D01*
X010316Y004648D01*
X010198Y004766D01*
X010044Y004830D01*
X009276Y004830D01*
X009122Y004766D01*
X009004Y004648D01*
X008940Y004494D01*
X008940Y004326D01*
X009004Y004172D01*
X009122Y004054D01*
X008986Y004215D02*
X008755Y004215D01*
X008874Y004334D02*
X008940Y004334D01*
X008930Y004452D02*
X008940Y004452D01*
X008930Y004571D02*
X008972Y004571D01*
X008930Y004689D02*
X009045Y004689D01*
X008930Y004808D02*
X009222Y004808D01*
X009276Y004990D02*
X009122Y005054D01*
X009004Y005172D01*
X008940Y005326D01*
X008940Y005494D01*
X009004Y005648D01*
X009122Y005766D01*
X009276Y005830D01*
X010044Y005830D01*
X010198Y005766D01*
X010316Y005648D01*
X010380Y005494D01*
X010380Y005326D01*
X010316Y005172D01*
X010198Y005054D01*
X010044Y004990D01*
X009276Y004990D01*
X009145Y005045D02*
X008930Y005045D01*
X008930Y005163D02*
X009013Y005163D01*
X008959Y005282D02*
X008929Y005282D01*
X008940Y005400D02*
X008830Y005400D01*
X008830Y005380D02*
X008830Y005380D01*
X008830Y005519D02*
X008950Y005519D01*
X008999Y005637D02*
X008830Y005637D01*
X008830Y005756D02*
X009112Y005756D01*
X009270Y005993D02*
X008830Y005993D01*
X008830Y006111D02*
X009065Y006111D01*
X009122Y006054D02*
X009276Y005990D01*
X010044Y005990D01*
X010198Y006054D01*
X010316Y006172D01*
X010380Y006326D01*
X010380Y006494D01*
X010316Y006648D01*
X010198Y006766D01*
X010044Y006830D01*
X009276Y006830D01*
X009122Y006766D01*
X009004Y006648D01*
X008940Y006494D01*
X008940Y006326D01*
X009004Y006172D01*
X009122Y006054D01*
X008980Y006230D02*
X008830Y006230D01*
X008830Y006348D02*
X008940Y006348D01*
X008940Y006467D02*
X008830Y006467D01*
X008830Y006585D02*
X008978Y006585D01*
X009060Y006704D02*
X008830Y006704D01*
X008830Y006822D02*
X009257Y006822D01*
X009276Y006990D02*
X010044Y006990D01*
X010198Y007054D01*
X010316Y007172D01*
X010380Y007326D01*
X010380Y007494D01*
X010316Y007648D01*
X010198Y007766D01*
X010044Y007830D01*
X009276Y007830D01*
X009122Y007766D01*
X009004Y007648D01*
X008940Y007494D01*
X008940Y007326D01*
X009004Y007172D01*
X009122Y007054D01*
X009276Y006990D01*
X009117Y007059D02*
X008830Y007059D01*
X008830Y006941D02*
X010492Y006941D01*
X010492Y007059D02*
X010203Y007059D01*
X010318Y007178D02*
X010492Y007178D01*
X010492Y007296D02*
X010367Y007296D01*
X010380Y007415D02*
X010492Y007415D01*
X010492Y007533D02*
X010364Y007533D01*
X010312Y007652D02*
X010492Y007652D01*
X010492Y007770D02*
X010188Y007770D01*
X010085Y008007D02*
X010492Y008007D01*
X010492Y007889D02*
X008830Y007889D01*
X008830Y008007D02*
X009235Y008007D01*
X009051Y008126D02*
X008830Y008126D01*
X008830Y007770D02*
X009132Y007770D01*
X009008Y007652D02*
X008830Y007652D01*
X008830Y007533D02*
X008956Y007533D01*
X008940Y007415D02*
X008830Y007415D01*
X008830Y007296D02*
X008953Y007296D01*
X009002Y007178D02*
X008830Y007178D01*
X008830Y005874D02*
X010492Y005874D01*
X010492Y005756D02*
X010208Y005756D01*
X010321Y005637D02*
X010492Y005637D01*
X010492Y005519D02*
X010370Y005519D01*
X010380Y005400D02*
X010492Y005400D01*
X010492Y005282D02*
X010361Y005282D01*
X010307Y005163D02*
X010492Y005163D01*
X010492Y005045D02*
X010175Y005045D01*
X010098Y004808D02*
X010492Y004808D01*
X010492Y004926D02*
X008930Y004926D01*
X008518Y003978D02*
X010492Y003978D01*
X010492Y003860D02*
X008400Y003860D01*
X008281Y003741D02*
X009097Y003741D01*
X008993Y003623D02*
X008205Y003623D01*
X008205Y003504D02*
X008944Y003504D01*
X008940Y003386D02*
X008205Y003386D01*
X008205Y003267D02*
X008965Y003267D01*
X009028Y003149D02*
X008205Y003149D01*
X009620Y001134D02*
X009700Y001134D01*
X009700Y001016D02*
X009620Y001016D01*
X010110Y001845D02*
X010492Y001845D01*
X010492Y001727D02*
X010294Y001727D01*
X010375Y001608D02*
X010492Y001608D01*
X010492Y001490D02*
X010413Y001490D01*
X010492Y003149D02*
X010292Y003149D01*
X010355Y003267D02*
X010492Y003267D01*
X010492Y003386D02*
X010380Y003386D01*
X010376Y003504D02*
X010492Y003504D01*
X010492Y003623D02*
X010327Y003623D01*
X010223Y003741D02*
X010492Y003741D01*
X010492Y004097D02*
X010240Y004097D01*
X010334Y004215D02*
X010492Y004215D01*
X010492Y004334D02*
X010380Y004334D01*
X010380Y004452D02*
X010492Y004452D01*
X010492Y004571D02*
X010348Y004571D01*
X010275Y004689D02*
X010492Y004689D01*
X010492Y005993D02*
X010050Y005993D01*
X010255Y006111D02*
X010492Y006111D01*
X010492Y006230D02*
X010340Y006230D01*
X010380Y006348D02*
X010492Y006348D01*
X010492Y006467D02*
X010380Y006467D01*
X010342Y006585D02*
X010492Y006585D01*
X010492Y006704D02*
X010260Y006704D01*
X010063Y006822D02*
X010492Y006822D01*
X010492Y008126D02*
X010269Y008126D01*
X010346Y008244D02*
X010492Y008244D01*
X010492Y008363D02*
X010380Y008363D01*
X010380Y008481D02*
X010492Y008481D01*
X010492Y008600D02*
X010336Y008600D01*
X010246Y008718D02*
X010492Y008718D01*
X010492Y008837D02*
X008590Y008837D01*
X008590Y008955D02*
X009292Y008955D01*
X009324Y008950D02*
X009620Y008950D01*
X009620Y009370D01*
X009700Y009370D01*
X009700Y009450D01*
X009620Y009450D01*
X009620Y009870D01*
X009324Y009870D01*
X009252Y009859D01*
X009183Y009836D01*
X009119Y009803D01*
X009060Y009761D01*
X009009Y009710D01*
X008967Y009651D01*
X008934Y009587D01*
X008911Y009518D01*
X008901Y009450D01*
X009620Y009450D01*
X009620Y009370D01*
X008901Y009370D01*
X008911Y009302D01*
X008934Y009233D01*
X008967Y009169D01*
X009009Y009110D01*
X009060Y009059D01*
X009119Y009017D01*
X009183Y008984D01*
X009252Y008961D01*
X009324Y008950D01*
X009620Y008955D02*
X009700Y008955D01*
X009700Y008950D02*
X009996Y008950D01*
X010068Y008961D01*
X010137Y008984D01*
X010201Y009017D01*
X010260Y009059D01*
X010311Y009110D01*
X010353Y009169D01*
X010386Y009233D01*
X010409Y009302D01*
X010419Y009370D01*
X009700Y009370D01*
X009700Y008950D01*
X009700Y009074D02*
X009620Y009074D01*
X009620Y009192D02*
X009700Y009192D01*
X009700Y009311D02*
X009620Y009311D01*
X009620Y009429D02*
X008590Y009429D01*
X008590Y009311D02*
X008910Y009311D01*
X008955Y009192D02*
X008590Y009192D01*
X008590Y009074D02*
X009046Y009074D01*
X009074Y008718D02*
X008590Y008718D01*
X008590Y009548D02*
X008921Y009548D01*
X008977Y009666D02*
X008590Y009666D01*
X008590Y009785D02*
X009093Y009785D01*
X009183Y009984D02*
X009119Y010017D01*
X009060Y010059D01*
X009009Y010110D01*
X008967Y010169D01*
X008934Y010233D01*
X008911Y010302D01*
X008901Y010370D01*
X009620Y010370D01*
X009700Y010370D01*
X009700Y010450D01*
X009620Y010450D01*
X009620Y010870D01*
X009324Y010870D01*
X009252Y010859D01*
X009183Y010836D01*
X009119Y010803D01*
X009060Y010761D01*
X009009Y010710D01*
X008967Y010651D01*
X008934Y010587D01*
X008911Y010518D01*
X008901Y010450D01*
X009620Y010450D01*
X009620Y010370D01*
X009620Y009950D01*
X009324Y009950D01*
X009252Y009961D01*
X009183Y009984D01*
X009112Y010022D02*
X008590Y010022D01*
X008590Y010140D02*
X008988Y010140D01*
X008926Y010259D02*
X008590Y010259D01*
X008573Y010377D02*
X009620Y010377D01*
X009700Y010377D02*
X010492Y010377D01*
X010419Y010370D02*
X009700Y010370D01*
X009700Y009950D01*
X009996Y009950D01*
X010068Y009961D01*
X010137Y009984D01*
X010201Y010017D01*
X010260Y010059D01*
X010311Y010110D01*
X010353Y010169D01*
X010386Y010233D01*
X010409Y010302D01*
X010419Y010370D01*
X010419Y010450D02*
X010409Y010518D01*
X010386Y010587D01*
X010353Y010651D01*
X010311Y010710D01*
X010260Y010761D01*
X010201Y010803D01*
X010137Y010836D01*
X010068Y010859D01*
X009996Y010870D01*
X009700Y010870D01*
X009700Y010450D01*
X010419Y010450D01*
X010412Y010496D02*
X010492Y010496D01*
X010492Y010614D02*
X010372Y010614D01*
X010288Y010733D02*
X010492Y010733D01*
X010492Y010851D02*
X010091Y010851D01*
X010492Y010970D02*
X008187Y010970D01*
X008187Y011088D02*
X010492Y011088D01*
X010492Y011207D02*
X008187Y011207D01*
X008187Y011325D02*
X010492Y011325D01*
X010492Y011444D02*
X008187Y011444D01*
X008187Y011562D02*
X010492Y011562D01*
X010492Y011681D02*
X008187Y011681D01*
X008187Y011799D02*
X010492Y011799D01*
X010492Y011918D02*
X008187Y011918D01*
X008187Y012036D02*
X010492Y012036D01*
X010492Y012155D02*
X008187Y012155D01*
X008138Y012273D02*
X010492Y012273D01*
X010492Y012392D02*
X008000Y012392D01*
X007862Y012510D02*
X010492Y012510D01*
X010492Y012629D02*
X007723Y012629D01*
X007585Y012747D02*
X010492Y012747D01*
X010492Y013103D02*
X007495Y013103D01*
X007607Y013221D02*
X010492Y013221D01*
X010492Y013340D02*
X007677Y013340D01*
X007716Y013458D02*
X010492Y013458D01*
X010492Y013577D02*
X007157Y013577D01*
X007157Y013695D02*
X007037Y013695D01*
X007037Y013814D02*
X007157Y013814D01*
X007157Y013932D02*
X007037Y013932D01*
X007037Y014051D02*
X007157Y014051D01*
X007157Y014169D02*
X007037Y014169D01*
X007364Y014169D02*
X010492Y014169D01*
X010492Y014051D02*
X007536Y014051D01*
X007634Y013932D02*
X010492Y013932D01*
X010492Y013814D02*
X007691Y013814D01*
X007721Y013695D02*
X010492Y013695D01*
X010492Y014288D02*
X000820Y014288D01*
X003490Y011681D02*
X003596Y011681D01*
X003624Y011562D02*
X003490Y011562D01*
X003490Y011444D02*
X003677Y011444D01*
X003768Y011325D02*
X003490Y011325D01*
X003490Y011207D02*
X003925Y011207D01*
X003124Y010022D02*
X003065Y010022D01*
X003065Y009903D02*
X003124Y009903D01*
X003124Y009785D02*
X003065Y009785D01*
X003065Y009666D02*
X003124Y009666D01*
X003124Y009548D02*
X003065Y009548D01*
X003065Y009429D02*
X003124Y009429D01*
X003159Y009311D02*
X003065Y009311D01*
X003065Y009192D02*
X003645Y009192D01*
X003726Y009074D02*
X003065Y009074D01*
X003065Y008955D02*
X003844Y008955D01*
X003947Y008718D02*
X003065Y008718D01*
X003065Y008600D02*
X003829Y008600D01*
X003710Y008481D02*
X003065Y008481D01*
X003065Y008363D02*
X003595Y008363D01*
X003124Y008244D02*
X003097Y008244D01*
X003065Y008837D02*
X004588Y008837D01*
X004630Y008718D02*
X004373Y008718D01*
X004436Y008600D02*
X004630Y008600D01*
X004630Y008481D02*
X004440Y008481D01*
X004383Y008363D02*
X004630Y008363D01*
X004630Y008244D02*
X004546Y008244D01*
X004546Y008126D02*
X004630Y008126D01*
X004630Y008007D02*
X004546Y008007D01*
X004546Y007889D02*
X004630Y007889D01*
X004630Y007770D02*
X004546Y007770D01*
X004546Y007652D02*
X004630Y007652D01*
X004630Y007533D02*
X004533Y007533D01*
X004657Y007415D02*
X003360Y007415D01*
X003479Y007296D02*
X004753Y007296D01*
X004872Y007178D02*
X003597Y007178D01*
X003443Y006822D02*
X002063Y006822D01*
X002260Y006704D02*
X003480Y006704D01*
X002280Y008007D02*
X002085Y008007D01*
X002269Y008126D02*
X002280Y008126D01*
X002246Y008718D02*
X002280Y008718D01*
X002280Y009074D02*
X002217Y009074D01*
X002153Y009785D02*
X002280Y009785D01*
X002280Y009903D02*
X000820Y009903D01*
X002120Y010022D02*
X002280Y010022D01*
X001132Y007770D02*
X000820Y007770D01*
X000820Y007652D02*
X001008Y007652D01*
X000956Y007533D02*
X000820Y007533D01*
X000820Y007415D02*
X000940Y007415D01*
X000953Y007296D02*
X000820Y007296D01*
X000820Y007178D02*
X001002Y007178D01*
X001117Y007059D02*
X000820Y007059D01*
X002275Y004689D02*
X002980Y004689D01*
X002980Y004571D02*
X002348Y004571D01*
X005190Y007652D02*
X005281Y007652D01*
X005281Y007770D02*
X005190Y007770D01*
X005190Y007889D02*
X005281Y007889D01*
X005281Y008007D02*
X005190Y008007D01*
X005190Y008126D02*
X005281Y008126D01*
X005281Y008244D02*
X005190Y008244D01*
X005190Y008363D02*
X005281Y008363D01*
X005281Y008481D02*
X005190Y008481D01*
X005190Y008600D02*
X005281Y008600D01*
X005281Y008718D02*
X005190Y008718D01*
X006648Y010970D02*
X007827Y010970D01*
X007827Y011088D02*
X006648Y011088D01*
X006648Y011207D02*
X006799Y011207D01*
X007668Y012036D02*
X007827Y012036D01*
X007827Y011918D02*
X007712Y011918D01*
X007723Y012155D02*
X007595Y012155D01*
X007585Y012273D02*
X007473Y012273D01*
X007447Y012392D02*
X007180Y012392D01*
X008187Y010851D02*
X009229Y010851D01*
X009032Y010733D02*
X008217Y010733D01*
X008336Y010614D02*
X008948Y010614D01*
X008908Y010496D02*
X008454Y010496D01*
X008590Y009903D02*
X010492Y009903D01*
X010492Y009785D02*
X010227Y009785D01*
X010201Y009803D02*
X010137Y009836D01*
X010068Y009859D01*
X009996Y009870D01*
X009700Y009870D01*
X009700Y009450D01*
X010419Y009450D01*
X010409Y009518D01*
X010386Y009587D01*
X010353Y009651D01*
X010311Y009710D01*
X010260Y009761D01*
X010201Y009803D01*
X010343Y009666D02*
X010492Y009666D01*
X010492Y009548D02*
X010399Y009548D01*
X010492Y009429D02*
X009700Y009429D01*
X009700Y009548D02*
X009620Y009548D01*
X009620Y009666D02*
X009700Y009666D01*
X009700Y009785D02*
X009620Y009785D01*
X009620Y010022D02*
X009700Y010022D01*
X009700Y010140D02*
X009620Y010140D01*
X009620Y010259D02*
X009700Y010259D01*
X009700Y010496D02*
X009620Y010496D01*
X009620Y010614D02*
X009700Y010614D01*
X009700Y010733D02*
X009620Y010733D01*
X009620Y010851D02*
X009700Y010851D01*
X010208Y010022D02*
X010492Y010022D01*
X010492Y010140D02*
X010332Y010140D01*
X010394Y010259D02*
X010492Y010259D01*
X010492Y009311D02*
X010410Y009311D01*
X010365Y009192D02*
X010492Y009192D01*
X010492Y009074D02*
X010274Y009074D01*
X010492Y008955D02*
X010028Y008955D01*
X005736Y003030D02*
X005722Y003030D01*
X005736Y002912D02*
X005544Y002912D01*
X005544Y002675D02*
X005736Y002675D01*
X005736Y002556D02*
X005544Y002556D01*
D22*
X007810Y004910D02*
X007810Y006310D01*
X007810Y006885D01*
X007410Y007285D01*
X005160Y007285D01*
X004910Y007535D01*
X004910Y008910D01*
X004660Y009160D01*
X004035Y009160D01*
X003910Y009285D01*
X003910Y009635D01*
X003835Y009710D01*
X003035Y010410D02*
X002785Y010160D01*
X002785Y008160D01*
X003035Y007910D01*
X003835Y007910D01*
X003835Y008210D01*
X004160Y008535D01*
X003835Y007910D02*
X003835Y007910D01*
X003035Y010410D02*
X005910Y010410D01*
X006290Y010790D01*
X006290Y011410D01*
D23*
X007035Y010535D03*
X008785Y008410D03*
X007810Y006310D03*
X007810Y004910D03*
X008285Y004410D03*
X008485Y004985D03*
X005610Y003285D03*
X005510Y001910D03*
X003660Y003010D03*
X005035Y004660D03*
X003160Y006410D03*
X004160Y008535D03*
X004035Y009160D03*
D24*
X008760Y004460D02*
X008035Y003735D01*
X008035Y002985D01*
X007085Y002035D01*
X005635Y002035D01*
X005510Y001910D01*
X008760Y005210D02*
X008660Y005310D01*
X008660Y008285D01*
X008785Y008410D01*
X008760Y005210D02*
X008760Y004460D01*
M02*
