G75*
%MOIN*%
%OFA0B0*%
%FSLAX24Y24*%
%IPPOS*%
%LPD*%
%AMOC8*
5,1,8,0,0,1.08239X$1,22.5*
%
%ADD10C,0.0000*%
%ADD11R,0.0650X0.0170*%
%ADD12R,0.0709X0.0630*%
%ADD13C,0.0476*%
%ADD14C,0.0945*%
%ADD15R,0.0630X0.0709*%
%ADD16R,0.0630X0.0630*%
%ADD17C,0.0630*%
%ADD18R,0.0630X0.0787*%
%ADD19C,0.0600*%
%ADD20C,0.0120*%
%ADD21C,0.0320*%
%ADD22C,0.0317*%
%ADD23C,0.0240*%
%ADD24C,0.0100*%
D10*
X000660Y000660D02*
X000660Y014530D01*
X010652Y014530D01*
X010652Y000660D01*
X000660Y000660D01*
D11*
X004230Y003000D03*
X004230Y003250D03*
X004230Y003510D03*
X004230Y003760D03*
X004230Y004020D03*
X004230Y004280D03*
X004230Y004530D03*
X004230Y004790D03*
X004230Y005040D03*
X004230Y005300D03*
X004230Y005560D03*
X004230Y005810D03*
X004230Y006070D03*
X004230Y006320D03*
X007090Y006320D03*
X007090Y006070D03*
X007090Y005810D03*
X007090Y005560D03*
X007090Y005300D03*
X007090Y005040D03*
X007090Y004790D03*
X007090Y004530D03*
X007090Y004280D03*
X007090Y004020D03*
X007090Y003760D03*
X007090Y003510D03*
X007090Y003250D03*
X007090Y003000D03*
D12*
X008160Y007109D03*
X008160Y008211D03*
X008160Y009359D03*
X008160Y010461D03*
X003160Y010461D03*
X003160Y009359D03*
X003160Y008211D03*
X003160Y007109D03*
D13*
X005030Y010934D02*
X005030Y011410D01*
X005345Y011882D02*
X005345Y012358D01*
X005975Y012358D02*
X005975Y011882D01*
X006290Y011410D02*
X006290Y010934D01*
X005660Y010934D02*
X005660Y011410D01*
D14*
X007097Y011764D03*
X007097Y013595D03*
X004223Y013595D03*
X004223Y011764D03*
D15*
X005109Y009785D03*
X005109Y008660D03*
X005109Y007560D03*
X006211Y007560D03*
X006211Y008660D03*
X006211Y009785D03*
D16*
X003160Y001330D03*
D17*
X004160Y001490D03*
X005160Y001330D03*
X006160Y001490D03*
X007160Y001330D03*
X008160Y001490D03*
D18*
X009035Y011597D03*
X009035Y013723D03*
X002285Y013723D03*
X002285Y011597D03*
D19*
X001960Y010410D02*
X001360Y010410D01*
X001360Y009410D02*
X001960Y009410D01*
X001960Y008410D02*
X001360Y008410D01*
X001360Y007410D02*
X001960Y007410D01*
X001960Y006410D02*
X001360Y006410D01*
X001360Y005410D02*
X001960Y005410D01*
X001960Y004410D02*
X001360Y004410D01*
X001360Y003410D02*
X001960Y003410D01*
X001960Y002410D02*
X001360Y002410D01*
X001360Y001410D02*
X001960Y001410D01*
X009360Y001410D02*
X009960Y001410D01*
X009960Y002410D02*
X009360Y002410D01*
X009360Y003410D02*
X009960Y003410D01*
X009960Y004410D02*
X009360Y004410D01*
X009360Y005410D02*
X009960Y005410D01*
X009960Y006410D02*
X009360Y006410D01*
X009360Y007410D02*
X009960Y007410D01*
X009960Y008410D02*
X009360Y008410D01*
X009360Y009410D02*
X009960Y009410D01*
X009960Y010410D02*
X009360Y010410D01*
D20*
X009620Y010377D02*
X008890Y010377D01*
X008901Y010370D02*
X008911Y010302D01*
X008934Y010233D01*
X008967Y010169D01*
X009009Y010110D01*
X009060Y010059D01*
X009119Y010017D01*
X009183Y009984D01*
X009252Y009961D01*
X009324Y009950D01*
X009620Y009950D01*
X009620Y010370D01*
X009700Y010370D01*
X009700Y010450D01*
X009620Y010450D01*
X009620Y010870D01*
X009324Y010870D01*
X009252Y010859D01*
X009183Y010836D01*
X009119Y010803D01*
X009060Y010761D01*
X009009Y010710D01*
X008967Y010651D01*
X008934Y010587D01*
X008911Y010518D01*
X008901Y010450D01*
X009620Y010450D01*
X009620Y010370D01*
X008901Y010370D01*
X008890Y010259D02*
X008926Y010259D01*
X008890Y010140D02*
X008988Y010140D01*
X008890Y010022D02*
X009112Y010022D01*
X009183Y009836D02*
X009119Y009803D01*
X009060Y009761D01*
X009009Y009710D01*
X008967Y009651D01*
X008934Y009587D01*
X008911Y009518D01*
X008901Y009450D01*
X009620Y009450D01*
X009620Y009870D01*
X009324Y009870D01*
X009252Y009859D01*
X009183Y009836D01*
X009093Y009785D02*
X008664Y009785D01*
X008619Y009739D02*
X008785Y009905D01*
X008890Y010010D01*
X008890Y010760D01*
X009110Y010980D01*
X009213Y011083D01*
X009400Y011083D01*
X009470Y011154D01*
X009470Y012040D01*
X009400Y012111D01*
X008670Y012111D01*
X008600Y012040D01*
X008600Y011154D01*
X008670Y011083D01*
X008704Y011083D01*
X008552Y010932D01*
X008535Y010936D01*
X008220Y010936D01*
X008220Y010521D01*
X008100Y010521D01*
X008100Y010936D01*
X007791Y010936D01*
X008360Y011505D01*
X008465Y011610D01*
X008465Y012835D01*
X008839Y013209D01*
X009400Y013209D01*
X009470Y013280D01*
X009470Y014166D01*
X009400Y014237D01*
X008670Y014237D01*
X008600Y014166D01*
X008600Y013480D01*
X008210Y013090D01*
X008105Y012985D01*
X008105Y011760D01*
X007380Y011035D01*
X007380Y010110D01*
X006710Y009440D01*
X006686Y009440D01*
X006686Y009725D01*
X006271Y009725D01*
X006271Y009845D01*
X006151Y009845D01*
X006151Y009725D01*
X005736Y009725D01*
X005736Y009440D01*
X005708Y009440D01*
X005544Y009605D01*
X005544Y010189D01*
X005473Y010259D01*
X004744Y010259D01*
X004674Y010189D01*
X004674Y010065D01*
X004565Y010065D01*
X004565Y010216D01*
X004522Y010319D01*
X004444Y010397D01*
X004142Y010699D01*
X004040Y010741D01*
X003634Y010741D01*
X003634Y010826D01*
X003564Y010896D01*
X002756Y010896D01*
X002686Y010826D01*
X002686Y010741D01*
X002223Y010741D01*
X002198Y010766D01*
X002044Y010830D01*
X001276Y010830D01*
X001122Y010766D01*
X001090Y010734D01*
X001090Y011235D01*
X001185Y011330D01*
X001850Y011330D01*
X001850Y011154D01*
X001920Y011083D01*
X002650Y011083D01*
X002720Y011154D01*
X002720Y012040D01*
X002650Y012111D01*
X001920Y012111D01*
X001850Y012040D01*
X001850Y011690D01*
X001035Y011690D01*
X000835Y011490D01*
X000820Y011475D01*
X000820Y014370D01*
X010492Y014370D01*
X010492Y000820D01*
X000820Y000820D01*
X000820Y009895D01*
X000880Y009835D01*
X000985Y009730D01*
X001086Y009730D01*
X001004Y009648D01*
X000940Y009494D01*
X000940Y009326D01*
X001004Y009172D01*
X001122Y009054D01*
X001276Y008990D01*
X002044Y008990D01*
X002198Y009054D01*
X002230Y009086D01*
X002280Y009035D01*
X002280Y008684D01*
X002198Y008766D01*
X002044Y008830D01*
X001276Y008830D01*
X001122Y008766D01*
X001004Y008648D01*
X000940Y008494D01*
X000940Y008326D01*
X001004Y008172D01*
X001122Y008054D01*
X001276Y007990D01*
X001825Y007990D01*
X001985Y007830D01*
X001276Y007830D01*
X001122Y007766D01*
X001004Y007648D01*
X000940Y007494D01*
X000940Y007326D01*
X001004Y007172D01*
X001122Y007054D01*
X001276Y006990D01*
X001825Y006990D01*
X001985Y006830D01*
X001276Y006830D01*
X001122Y006766D01*
X001004Y006648D01*
X000940Y006494D01*
X000940Y006326D01*
X001004Y006172D01*
X001122Y006054D01*
X001276Y005990D01*
X001825Y005990D01*
X001985Y005830D01*
X001276Y005830D01*
X001122Y005766D01*
X001004Y005648D01*
X000940Y005494D01*
X000940Y005326D01*
X001004Y005172D01*
X001122Y005054D01*
X001276Y004990D01*
X001985Y004990D01*
X001825Y004830D01*
X001276Y004830D01*
X001122Y004766D01*
X001004Y004648D01*
X000940Y004494D01*
X000940Y004326D01*
X001004Y004172D01*
X001122Y004054D01*
X001276Y003990D01*
X001985Y003990D01*
X001825Y003830D01*
X001276Y003830D01*
X001122Y003766D01*
X001004Y003648D01*
X000940Y003494D01*
X000940Y003326D01*
X001004Y003172D01*
X001122Y003054D01*
X001276Y002990D01*
X002044Y002990D01*
X002198Y003054D01*
X002316Y003172D01*
X002380Y003326D01*
X002380Y003494D01*
X002316Y003648D01*
X002234Y003730D01*
X002640Y004135D01*
X002640Y004610D01*
X003745Y004610D01*
X003745Y004530D01*
X004230Y004530D01*
X004230Y004530D01*
X003745Y004530D01*
X003745Y004424D01*
X003756Y004383D01*
X003777Y004347D01*
X003785Y004339D01*
X003785Y003690D01*
X003635Y003690D01*
X002535Y002590D01*
X002340Y002590D01*
X002316Y002648D01*
X002198Y002766D01*
X002044Y002830D01*
X001276Y002830D01*
X001122Y002766D01*
X001004Y002648D01*
X000940Y002494D01*
X000940Y002326D01*
X001004Y002172D01*
X001122Y002054D01*
X001276Y001990D01*
X002044Y001990D01*
X002198Y002054D01*
X002316Y002172D01*
X002340Y002230D01*
X002685Y002230D01*
X002790Y002335D01*
X003390Y002935D01*
X003424Y002852D01*
X003502Y002774D01*
X003605Y002732D01*
X003715Y002732D01*
X003818Y002774D01*
X003847Y002803D01*
X003855Y002795D01*
X004580Y002795D01*
X004580Y002195D01*
X004292Y001906D01*
X004247Y001925D01*
X004073Y001925D01*
X003914Y001859D01*
X003791Y001736D01*
X003725Y001577D01*
X003725Y001403D01*
X003791Y001244D01*
X003914Y001121D01*
X004073Y001055D01*
X004247Y001055D01*
X004406Y001121D01*
X004529Y001244D01*
X004595Y001403D01*
X004595Y001577D01*
X004559Y001664D01*
X004835Y001940D01*
X004940Y002045D01*
X004940Y003135D01*
X004740Y003335D01*
X004675Y003400D01*
X004675Y003555D01*
X005340Y002890D01*
X005340Y002134D01*
X005274Y002068D01*
X005232Y001965D01*
X005232Y001855D01*
X005256Y001796D01*
X005205Y001804D01*
X005205Y001375D01*
X005115Y001375D01*
X005115Y001804D01*
X005049Y001793D01*
X004978Y001770D01*
X004911Y001736D01*
X004851Y001692D01*
X004798Y001639D01*
X004754Y001579D01*
X004720Y001512D01*
X004697Y001441D01*
X004686Y001375D01*
X005115Y001375D01*
X005115Y001285D01*
X005205Y001285D01*
X005205Y000856D01*
X005271Y000867D01*
X005342Y000890D01*
X005409Y000924D01*
X005469Y000968D01*
X005522Y001021D01*
X005532Y001034D01*
X005585Y000980D01*
X005605Y000960D01*
X005710Y000855D01*
X006940Y000855D01*
X007007Y000923D01*
X007073Y000895D01*
X007247Y000895D01*
X007406Y000961D01*
X007529Y001084D01*
X007595Y001243D01*
X007595Y001417D01*
X007529Y001576D01*
X007406Y001699D01*
X007247Y001765D01*
X007073Y001765D01*
X006914Y001699D01*
X006791Y001576D01*
X006725Y001417D01*
X006725Y001243D01*
X006737Y001215D01*
X006500Y001215D01*
X006529Y001244D01*
X006595Y001403D01*
X006595Y001577D01*
X006529Y001736D01*
X006406Y001859D01*
X006340Y001886D01*
X006340Y002491D01*
X006624Y002207D01*
X006712Y002170D01*
X009006Y002170D01*
X009122Y002054D01*
X009276Y001990D01*
X010044Y001990D01*
X010198Y002054D01*
X010316Y002172D01*
X010380Y002326D01*
X010380Y002494D01*
X010316Y002648D01*
X010198Y002766D01*
X010044Y002830D01*
X009276Y002830D01*
X009122Y002766D01*
X009006Y002650D01*
X006859Y002650D01*
X006700Y002809D01*
X006700Y002810D01*
X006715Y002795D01*
X007465Y002795D01*
X007535Y002865D01*
X007535Y003090D01*
X008930Y003090D01*
X009008Y003168D01*
X009122Y003054D01*
X009276Y002990D01*
X010044Y002990D01*
X010198Y003054D01*
X010316Y003172D01*
X010380Y003326D01*
X010380Y003494D01*
X010316Y003648D01*
X010198Y003766D01*
X010044Y003830D01*
X009320Y003830D01*
X009480Y003990D01*
X010044Y003990D01*
X010198Y004054D01*
X010316Y004172D01*
X010380Y004326D01*
X010380Y004494D01*
X010316Y004648D01*
X010198Y004766D01*
X010044Y004830D01*
X009320Y004830D01*
X009480Y004990D01*
X010044Y004990D01*
X010198Y005054D01*
X010316Y005172D01*
X010380Y005326D01*
X010380Y005494D01*
X010316Y005648D01*
X010198Y005766D01*
X010044Y005830D01*
X009276Y005830D01*
X009122Y005766D01*
X009004Y005648D01*
X008940Y005494D01*
X008940Y005326D01*
X009004Y005172D01*
X009093Y005083D01*
X008840Y004830D01*
X008740Y004730D01*
X008740Y004030D01*
X008640Y003930D01*
X007575Y003930D01*
X007575Y004020D01*
X007575Y004126D01*
X007564Y004167D01*
X007543Y004203D01*
X007535Y004211D01*
X007535Y004230D01*
X007555Y004210D01*
X007660Y004105D01*
X008235Y004105D01*
X008261Y004132D01*
X008340Y004132D01*
X008443Y004174D01*
X008521Y004252D01*
X008563Y004355D01*
X008563Y004465D01*
X008521Y004568D01*
X008443Y004646D01*
X008395Y004666D01*
X008436Y004707D01*
X008540Y004707D01*
X008643Y004749D01*
X008721Y004827D01*
X008763Y004930D01*
X008763Y005040D01*
X008721Y005143D01*
X008643Y005221D01*
X008540Y005263D01*
X008430Y005263D01*
X008327Y005221D01*
X008249Y005143D01*
X008207Y005040D01*
X008207Y004986D01*
X008088Y004868D01*
X008088Y004965D01*
X008046Y005068D01*
X007974Y005140D01*
X008080Y005140D01*
X009058Y006118D01*
X009122Y006054D01*
X009276Y005990D01*
X010044Y005990D01*
X010198Y006054D01*
X010316Y006172D01*
X010380Y006326D01*
X010380Y006494D01*
X010316Y006648D01*
X010198Y006766D01*
X010044Y006830D01*
X009276Y006830D01*
X009122Y006766D01*
X009080Y006724D01*
X009080Y007090D01*
X009083Y007093D01*
X009122Y007054D01*
X009276Y006990D01*
X010044Y006990D01*
X010198Y007054D01*
X010316Y007172D01*
X010380Y007326D01*
X010380Y007494D01*
X010316Y007648D01*
X010198Y007766D01*
X010044Y007830D01*
X009276Y007830D01*
X009122Y007766D01*
X009004Y007648D01*
X008940Y007494D01*
X008940Y007430D01*
X008880Y007370D01*
X008880Y007540D01*
X009330Y007990D01*
X010044Y007990D01*
X010198Y008054D01*
X010316Y008172D01*
X010380Y008326D01*
X010380Y008494D01*
X010316Y008648D01*
X010198Y008766D01*
X010044Y008830D01*
X009276Y008830D01*
X009122Y008766D01*
X009004Y008648D01*
X008985Y008603D01*
X008943Y008646D01*
X008840Y008688D01*
X008730Y008688D01*
X008627Y008646D01*
X008596Y008614D01*
X008564Y008646D01*
X008340Y008646D01*
X008340Y008924D01*
X008564Y008924D01*
X008634Y008994D01*
X008634Y009723D01*
X008619Y009739D01*
X008634Y009666D02*
X008977Y009666D01*
X008921Y009548D02*
X008634Y009548D01*
X008634Y009429D02*
X009620Y009429D01*
X009620Y009450D02*
X009620Y009370D01*
X009700Y009370D01*
X009700Y009450D01*
X009620Y009450D01*
X009700Y009450D02*
X009700Y009870D01*
X009996Y009870D01*
X010068Y009859D01*
X010137Y009836D01*
X010201Y009803D01*
X010260Y009761D01*
X010311Y009710D01*
X010353Y009651D01*
X010386Y009587D01*
X010409Y009518D01*
X010419Y009450D01*
X009700Y009450D01*
X009700Y009429D02*
X010492Y009429D01*
X010419Y009370D02*
X009700Y009370D01*
X009700Y008950D01*
X009996Y008950D01*
X010068Y008961D01*
X010137Y008984D01*
X010201Y009017D01*
X010260Y009059D01*
X010311Y009110D01*
X010353Y009169D01*
X010386Y009233D01*
X010409Y009302D01*
X010419Y009370D01*
X010410Y009311D02*
X010492Y009311D01*
X010492Y009192D02*
X010365Y009192D01*
X010274Y009074D02*
X010492Y009074D01*
X010492Y008955D02*
X010028Y008955D01*
X010246Y008718D02*
X010492Y008718D01*
X010492Y008600D02*
X010336Y008600D01*
X010380Y008481D02*
X010492Y008481D01*
X010492Y008363D02*
X010380Y008363D01*
X010346Y008244D02*
X010492Y008244D01*
X010492Y008126D02*
X010269Y008126D01*
X010085Y008007D02*
X010492Y008007D01*
X010492Y007889D02*
X009229Y007889D01*
X009132Y007770D02*
X009110Y007770D01*
X009008Y007652D02*
X008992Y007652D01*
X008956Y007533D02*
X008880Y007533D01*
X008880Y007415D02*
X008924Y007415D01*
X009080Y007059D02*
X009117Y007059D01*
X009080Y006941D02*
X010492Y006941D01*
X010492Y007059D02*
X010203Y007059D01*
X010318Y007178D02*
X010492Y007178D01*
X010492Y007296D02*
X010367Y007296D01*
X010380Y007415D02*
X010492Y007415D01*
X010492Y007533D02*
X010364Y007533D01*
X010312Y007652D02*
X010492Y007652D01*
X010492Y007770D02*
X010188Y007770D01*
X010063Y006822D02*
X010492Y006822D01*
X010492Y006704D02*
X010260Y006704D01*
X010342Y006585D02*
X010492Y006585D01*
X010492Y006467D02*
X010380Y006467D01*
X010380Y006348D02*
X010492Y006348D01*
X010492Y006230D02*
X010340Y006230D01*
X010255Y006111D02*
X010492Y006111D01*
X010492Y005993D02*
X010050Y005993D01*
X010208Y005756D02*
X010492Y005756D01*
X010492Y005874D02*
X008814Y005874D01*
X008696Y005756D02*
X009112Y005756D01*
X008999Y005637D02*
X008577Y005637D01*
X008459Y005519D02*
X008950Y005519D01*
X008940Y005400D02*
X008340Y005400D01*
X008222Y005282D02*
X008959Y005282D01*
X009013Y005163D02*
X008701Y005163D01*
X008762Y005045D02*
X009054Y005045D01*
X008936Y004926D02*
X008762Y004926D01*
X008817Y004808D02*
X008701Y004808D01*
X008740Y004689D02*
X008419Y004689D01*
X008518Y004571D02*
X008740Y004571D01*
X008740Y004452D02*
X008563Y004452D01*
X008555Y004334D02*
X008740Y004334D01*
X008740Y004215D02*
X008484Y004215D01*
X008285Y004410D02*
X008160Y004285D01*
X007735Y004285D01*
X007485Y004535D01*
X007095Y004535D01*
X007090Y004530D01*
X007085Y004285D02*
X007090Y004280D01*
X007085Y004285D02*
X006660Y004285D01*
X006410Y004535D01*
X006410Y006785D01*
X006211Y006984D01*
X006211Y007560D01*
X005776Y007533D02*
X005169Y007533D01*
X005169Y007500D02*
X005169Y007620D01*
X005584Y007620D01*
X005584Y007935D01*
X005573Y007976D01*
X005552Y008013D01*
X005522Y008042D01*
X005486Y008063D01*
X005445Y008074D01*
X005169Y008074D01*
X005169Y007620D01*
X005049Y007620D01*
X005049Y008074D01*
X004773Y008074D01*
X004732Y008063D01*
X004696Y008042D01*
X004666Y008013D01*
X004645Y007976D01*
X004634Y007935D01*
X004634Y007620D01*
X005049Y007620D01*
X005049Y007500D01*
X005169Y007500D01*
X005584Y007500D01*
X005584Y007185D01*
X005573Y007144D01*
X005552Y007107D01*
X005522Y007078D01*
X005486Y007057D01*
X005445Y007046D01*
X005169Y007046D01*
X005169Y007500D01*
X005169Y007415D02*
X005049Y007415D01*
X005049Y007500D02*
X005049Y007046D01*
X004773Y007046D01*
X004732Y007057D01*
X004696Y007078D01*
X004666Y007107D01*
X004645Y007144D01*
X004634Y007185D01*
X004634Y007500D01*
X005049Y007500D01*
X005049Y007533D02*
X004400Y007533D01*
X004400Y007415D02*
X004634Y007415D01*
X004634Y007296D02*
X004400Y007296D01*
X004400Y007209D02*
X004400Y008379D01*
X004401Y008380D01*
X004674Y008380D01*
X004674Y008256D01*
X004744Y008186D01*
X005473Y008186D01*
X005544Y008256D01*
X005544Y009064D01*
X005473Y009134D01*
X004744Y009134D01*
X004674Y009064D01*
X004674Y008940D01*
X004229Y008940D01*
X004198Y008927D01*
X004522Y009251D01*
X004565Y009354D01*
X004565Y009505D01*
X004674Y009505D01*
X004674Y009381D01*
X004744Y009311D01*
X005329Y009311D01*
X005454Y009185D01*
X005559Y009080D01*
X005749Y009080D01*
X005747Y009076D01*
X005736Y009035D01*
X005736Y008720D01*
X006151Y008720D01*
X006151Y008600D01*
X005736Y008600D01*
X005736Y008285D01*
X005747Y008244D01*
X005532Y008244D01*
X005544Y008363D02*
X005736Y008363D01*
X005736Y008481D02*
X005544Y008481D01*
X005544Y008600D02*
X005736Y008600D01*
X005736Y008837D02*
X005544Y008837D01*
X005544Y008955D02*
X005736Y008955D01*
X005746Y009074D02*
X005534Y009074D01*
X005447Y009192D02*
X004463Y009192D01*
X004547Y009311D02*
X005329Y009311D01*
X005634Y009260D02*
X006785Y009260D01*
X007560Y010035D01*
X007560Y010960D01*
X008285Y011685D01*
X008285Y012910D01*
X009035Y013660D01*
X009035Y013723D01*
X009470Y013695D02*
X010492Y013695D01*
X010492Y013577D02*
X009470Y013577D01*
X009470Y013458D02*
X010492Y013458D01*
X010492Y013340D02*
X009470Y013340D01*
X009411Y013221D02*
X010492Y013221D01*
X010492Y013103D02*
X008732Y013103D01*
X008614Y012984D02*
X010492Y012984D01*
X010492Y012866D02*
X008495Y012866D01*
X008465Y012747D02*
X010492Y012747D01*
X010492Y012629D02*
X008465Y012629D01*
X008465Y012510D02*
X010492Y012510D01*
X010492Y012392D02*
X008465Y012392D01*
X008465Y012273D02*
X010492Y012273D01*
X010492Y012155D02*
X008465Y012155D01*
X008465Y012036D02*
X008600Y012036D01*
X008600Y011918D02*
X008465Y011918D01*
X008465Y011799D02*
X008600Y011799D01*
X008600Y011681D02*
X008465Y011681D01*
X008417Y011562D02*
X008600Y011562D01*
X008600Y011444D02*
X008298Y011444D01*
X008180Y011325D02*
X008600Y011325D01*
X008600Y011207D02*
X008061Y011207D01*
X007943Y011088D02*
X008666Y011088D01*
X008590Y010970D02*
X007824Y010970D01*
X008100Y010851D02*
X008220Y010851D01*
X008220Y010733D02*
X008100Y010733D01*
X008100Y010614D02*
X008220Y010614D01*
X008220Y010401D02*
X008100Y010401D01*
X008100Y009986D01*
X007785Y009986D01*
X007744Y009997D01*
X007740Y009999D01*
X007740Y009960D01*
X007635Y009855D01*
X006860Y009080D01*
X006673Y009080D01*
X006675Y009076D01*
X006686Y009035D01*
X006686Y008720D01*
X006271Y008720D01*
X006271Y008600D01*
X006271Y008146D01*
X006547Y008146D01*
X006588Y008157D01*
X006624Y008178D01*
X006654Y008207D01*
X006675Y008244D01*
X006686Y008285D01*
X006686Y008600D01*
X006271Y008600D01*
X006151Y008600D01*
X006151Y008146D01*
X005875Y008146D01*
X005834Y008157D01*
X005798Y008178D01*
X005768Y008207D01*
X005747Y008244D01*
X005847Y008034D02*
X005776Y007964D01*
X005776Y007156D01*
X005847Y007086D01*
X006031Y007086D01*
X006031Y006909D01*
X006230Y006710D01*
X006230Y004460D01*
X006335Y004355D01*
X006585Y004105D01*
X006605Y004105D01*
X006605Y004020D01*
X007090Y004020D01*
X007575Y004020D01*
X007090Y004020D01*
X007090Y004020D01*
X007090Y004020D01*
X006605Y004020D01*
X006605Y003954D01*
X006596Y003963D01*
X006590Y003966D01*
X006150Y004366D01*
X006150Y006458D01*
X006113Y006546D01*
X005813Y006846D01*
X005746Y006913D01*
X005658Y006950D01*
X004659Y006950D01*
X004400Y007209D01*
X004432Y007178D02*
X004636Y007178D01*
X004550Y007059D02*
X004728Y007059D01*
X005049Y007059D02*
X005169Y007059D01*
X005169Y007178D02*
X005049Y007178D01*
X005049Y007296D02*
X005169Y007296D01*
X005169Y007652D02*
X005049Y007652D01*
X005049Y007770D02*
X005169Y007770D01*
X005169Y007889D02*
X005049Y007889D01*
X005049Y008007D02*
X005169Y008007D01*
X005555Y008007D02*
X005819Y008007D01*
X005847Y008034D02*
X006576Y008034D01*
X006646Y007964D01*
X006646Y007156D01*
X006576Y007086D01*
X006391Y007086D01*
X006391Y007058D01*
X006590Y006860D01*
X006590Y004610D01*
X006645Y004555D01*
X006645Y005879D01*
X006637Y005887D01*
X006616Y005923D01*
X006605Y005964D01*
X006605Y006070D01*
X007090Y006070D01*
X007575Y006070D01*
X007575Y006130D01*
X007596Y006130D01*
X007652Y006074D01*
X007755Y006032D01*
X007841Y006032D01*
X007790Y005980D01*
X007575Y005980D01*
X007575Y006070D01*
X007090Y006070D01*
X007090Y006070D01*
X007090Y006070D01*
X006605Y006070D01*
X006605Y006176D01*
X006616Y006217D01*
X006637Y006253D01*
X006645Y006261D01*
X006645Y006455D01*
X006715Y006525D01*
X007465Y006525D01*
X007500Y006490D01*
X007596Y006490D01*
X007652Y006546D01*
X007755Y006588D01*
X007865Y006588D01*
X007968Y006546D01*
X008046Y006468D01*
X008088Y006365D01*
X008088Y006279D01*
X008483Y006674D01*
X007756Y006674D01*
X007686Y006744D01*
X007686Y007473D01*
X007756Y007544D01*
X008103Y007544D01*
X008336Y007776D01*
X007756Y007776D01*
X007686Y007847D01*
X007686Y008576D01*
X007756Y008646D01*
X007980Y008646D01*
X007980Y008924D01*
X007756Y008924D01*
X007686Y008994D01*
X007686Y009723D01*
X007756Y009794D01*
X008039Y009794D01*
X008230Y009985D01*
X008232Y009986D01*
X008220Y009986D01*
X008220Y010401D01*
X008220Y010377D02*
X008100Y010377D01*
X008100Y010259D02*
X008220Y010259D01*
X008220Y010140D02*
X008100Y010140D01*
X008100Y010022D02*
X008220Y010022D01*
X008148Y009903D02*
X007683Y009903D01*
X007747Y009785D02*
X007564Y009785D01*
X007446Y009666D02*
X007686Y009666D01*
X007686Y009548D02*
X007327Y009548D01*
X007209Y009429D02*
X007686Y009429D01*
X007686Y009311D02*
X007090Y009311D01*
X006972Y009192D02*
X007686Y009192D01*
X007686Y009074D02*
X006676Y009074D01*
X006686Y008955D02*
X007725Y008955D01*
X007980Y008837D02*
X006686Y008837D01*
X006686Y008600D02*
X007709Y008600D01*
X007686Y008481D02*
X006686Y008481D01*
X006686Y008363D02*
X007686Y008363D01*
X007686Y008244D02*
X006675Y008244D01*
X006603Y008007D02*
X007686Y008007D01*
X007686Y007889D02*
X006646Y007889D01*
X006646Y007770D02*
X008330Y007770D01*
X008211Y007652D02*
X006646Y007652D01*
X006646Y007533D02*
X007745Y007533D01*
X007686Y007415D02*
X006646Y007415D01*
X006646Y007296D02*
X007686Y007296D01*
X007686Y007178D02*
X006646Y007178D01*
X006509Y006941D02*
X007686Y006941D01*
X007686Y007059D02*
X006391Y007059D01*
X006590Y006822D02*
X007686Y006822D01*
X007726Y006704D02*
X006590Y006704D01*
X006590Y006585D02*
X007746Y006585D01*
X007874Y006585D02*
X008395Y006585D01*
X008276Y006467D02*
X008047Y006467D01*
X008088Y006348D02*
X008158Y006348D01*
X007810Y006310D02*
X007100Y006310D01*
X007090Y006320D01*
X006645Y006348D02*
X006590Y006348D01*
X006590Y006230D02*
X006623Y006230D01*
X006605Y006111D02*
X006590Y006111D01*
X006590Y005993D02*
X006605Y005993D01*
X006590Y005874D02*
X006645Y005874D01*
X006645Y005756D02*
X006590Y005756D01*
X006590Y005637D02*
X006645Y005637D01*
X006645Y005519D02*
X006590Y005519D01*
X006590Y005400D02*
X006645Y005400D01*
X006645Y005282D02*
X006590Y005282D01*
X006590Y005163D02*
X006645Y005163D01*
X006645Y005045D02*
X006590Y005045D01*
X006590Y004926D02*
X006645Y004926D01*
X006645Y004808D02*
X006590Y004808D01*
X006590Y004689D02*
X006645Y004689D01*
X006645Y004571D02*
X006629Y004571D01*
X006357Y004334D02*
X006186Y004334D01*
X006150Y004452D02*
X006238Y004452D01*
X006230Y004571D02*
X006150Y004571D01*
X006150Y004689D02*
X006230Y004689D01*
X006230Y004808D02*
X006150Y004808D01*
X006150Y004926D02*
X006230Y004926D01*
X006230Y005045D02*
X006150Y005045D01*
X006150Y005163D02*
X006230Y005163D01*
X006230Y005282D02*
X006150Y005282D01*
X006150Y005400D02*
X006230Y005400D01*
X006230Y005519D02*
X006150Y005519D01*
X006150Y005637D02*
X006230Y005637D01*
X006230Y005756D02*
X006150Y005756D01*
X006150Y005874D02*
X006230Y005874D01*
X006230Y005993D02*
X006150Y005993D01*
X006150Y006111D02*
X006230Y006111D01*
X006230Y006230D02*
X006150Y006230D01*
X006150Y006348D02*
X006230Y006348D01*
X006230Y006467D02*
X006146Y006467D01*
X006074Y006585D02*
X006230Y006585D01*
X006230Y006704D02*
X005956Y006704D01*
X005837Y006822D02*
X006118Y006822D01*
X006031Y006941D02*
X005681Y006941D01*
X005776Y007178D02*
X005582Y007178D01*
X005584Y007296D02*
X005776Y007296D01*
X005776Y007415D02*
X005584Y007415D01*
X005584Y007652D02*
X005776Y007652D01*
X005776Y007770D02*
X005584Y007770D01*
X005584Y007889D02*
X005776Y007889D01*
X006151Y008244D02*
X006271Y008244D01*
X006271Y008363D02*
X006151Y008363D01*
X006151Y008481D02*
X006271Y008481D01*
X006271Y008600D02*
X006151Y008600D01*
X006151Y008718D02*
X005544Y008718D01*
X005634Y009260D02*
X005109Y009785D01*
X005544Y009785D02*
X006151Y009785D01*
X006151Y009845D02*
X005736Y009845D01*
X005736Y010160D01*
X005747Y010201D01*
X005768Y010238D01*
X005798Y010267D01*
X005834Y010288D01*
X005875Y010299D01*
X006151Y010299D01*
X006151Y009845D01*
X006151Y009903D02*
X006271Y009903D01*
X006271Y009845D02*
X006271Y010299D01*
X006547Y010299D01*
X006588Y010288D01*
X006624Y010267D01*
X006654Y010238D01*
X006675Y010201D01*
X006686Y010160D01*
X006686Y009845D01*
X006271Y009845D01*
X006271Y009785D02*
X007055Y009785D01*
X007173Y009903D02*
X006686Y009903D01*
X006686Y010022D02*
X007292Y010022D01*
X007380Y010140D02*
X006686Y010140D01*
X006633Y010259D02*
X006975Y010259D01*
X006980Y010257D02*
X007090Y010257D01*
X007193Y010299D01*
X007271Y010377D01*
X007380Y010377D01*
X007271Y010377D02*
X007313Y010480D01*
X007313Y010590D01*
X007271Y010693D01*
X007193Y010771D01*
X007090Y010813D01*
X006980Y010813D01*
X006877Y010771D01*
X006821Y010715D01*
X006577Y010715D01*
X006593Y010732D01*
X006648Y010863D01*
X006648Y011319D01*
X006685Y011282D01*
X006766Y011223D01*
X006854Y011178D01*
X006949Y011147D01*
X007037Y011134D01*
X007037Y011704D01*
X007157Y011704D01*
X007157Y011134D01*
X007245Y011147D01*
X007340Y011178D01*
X007428Y011223D01*
X007509Y011282D01*
X007579Y011352D01*
X007638Y011433D01*
X007683Y011522D01*
X007714Y011616D01*
X007728Y011704D01*
X007157Y011704D01*
X007157Y011824D01*
X007728Y011824D01*
X007714Y011912D01*
X007683Y012007D01*
X007638Y012096D01*
X007579Y012176D01*
X007509Y012247D01*
X007428Y012305D01*
X007340Y012350D01*
X007245Y012381D01*
X007157Y012395D01*
X007157Y011824D01*
X007037Y011824D01*
X007037Y011704D01*
X006502Y011704D01*
X006493Y011713D01*
X006361Y011768D01*
X006315Y011768D01*
X006333Y011811D01*
X006333Y012429D01*
X006278Y012561D01*
X006178Y012661D01*
X006046Y012716D01*
X005904Y012716D01*
X005772Y012661D01*
X005672Y012561D01*
X005660Y012533D01*
X005648Y012561D01*
X005548Y012661D01*
X005416Y012716D01*
X005274Y012716D01*
X005142Y012661D01*
X005042Y012561D01*
X004987Y012429D01*
X004987Y011811D01*
X004989Y011807D01*
X004914Y011793D01*
X004842Y011763D01*
X004776Y011719D01*
X004762Y011704D01*
X004283Y011704D01*
X004283Y011134D01*
X004371Y011147D01*
X004466Y011178D01*
X004554Y011223D01*
X004632Y011280D01*
X004632Y010895D01*
X004648Y010818D01*
X004678Y010746D01*
X004721Y010681D01*
X004776Y010625D01*
X004842Y010582D01*
X004914Y010552D01*
X004991Y010537D01*
X005021Y010537D01*
X005021Y011401D01*
X005039Y011401D01*
X005039Y010537D01*
X005069Y010537D01*
X005146Y010552D01*
X005219Y010582D01*
X005284Y010625D01*
X005339Y010681D01*
X005367Y010722D01*
X005457Y010631D01*
X005480Y010622D01*
X005480Y010585D01*
X005605Y010460D01*
X005710Y010355D01*
X006821Y010355D01*
X006877Y010299D01*
X006980Y010257D01*
X007095Y010259D02*
X007380Y010259D01*
X007380Y010496D02*
X007313Y010496D01*
X007304Y010614D02*
X007380Y010614D01*
X007380Y010733D02*
X007231Y010733D01*
X007380Y010851D02*
X006643Y010851D01*
X006648Y010970D02*
X007380Y010970D01*
X007433Y011088D02*
X006648Y011088D01*
X006648Y011207D02*
X006799Y011207D01*
X007037Y011207D02*
X007157Y011207D01*
X007157Y011325D02*
X007037Y011325D01*
X007037Y011444D02*
X007157Y011444D01*
X007157Y011562D02*
X007037Y011562D01*
X007037Y011681D02*
X007157Y011681D01*
X007157Y011799D02*
X008105Y011799D01*
X008105Y011918D02*
X007712Y011918D01*
X007668Y012036D02*
X008105Y012036D01*
X008105Y012155D02*
X007595Y012155D01*
X007473Y012273D02*
X008105Y012273D01*
X008105Y012392D02*
X007180Y012392D01*
X007157Y012392D02*
X007037Y012392D01*
X007037Y012395D02*
X006949Y012381D01*
X006854Y012350D01*
X006766Y012305D01*
X006685Y012247D01*
X006615Y012176D01*
X006556Y012096D01*
X006511Y012007D01*
X006480Y011912D01*
X006466Y011824D01*
X007037Y011824D01*
X007037Y012395D01*
X007014Y012392D02*
X006333Y012392D01*
X006333Y012273D02*
X006721Y012273D01*
X006599Y012155D02*
X006333Y012155D01*
X006333Y012036D02*
X006526Y012036D01*
X006482Y011918D02*
X006333Y011918D01*
X006328Y011799D02*
X007037Y011799D01*
X007037Y011918D02*
X007157Y011918D01*
X007157Y012036D02*
X007037Y012036D01*
X007037Y012155D02*
X007157Y012155D01*
X007157Y012273D02*
X007037Y012273D01*
X007037Y012964D02*
X006949Y012978D01*
X006854Y013009D01*
X006766Y013054D01*
X006685Y013113D01*
X006615Y013183D01*
X006556Y013264D01*
X006511Y013352D01*
X006480Y013447D01*
X006466Y013535D01*
X007037Y013535D01*
X007157Y013535D01*
X007157Y012964D01*
X007245Y012978D01*
X007340Y013009D01*
X007428Y013054D01*
X007509Y013113D01*
X007579Y013183D01*
X007638Y013264D01*
X007683Y013352D01*
X007714Y013447D01*
X007728Y013535D01*
X007157Y013535D01*
X007157Y013655D01*
X007728Y013655D01*
X007714Y013743D01*
X007683Y013838D01*
X007638Y013927D01*
X007579Y014007D01*
X007509Y014077D01*
X007428Y014136D01*
X007340Y014181D01*
X007245Y014212D01*
X007157Y014226D01*
X007157Y013655D01*
X007037Y013655D01*
X007037Y013535D01*
X007037Y012964D01*
X007037Y012984D02*
X007157Y012984D01*
X007263Y012984D02*
X008105Y012984D01*
X008105Y012866D02*
X000820Y012866D01*
X000820Y012984D02*
X004057Y012984D01*
X004075Y012978D02*
X004163Y012964D01*
X004163Y013535D01*
X004283Y013535D01*
X004283Y012964D01*
X004371Y012978D01*
X004466Y013009D01*
X004554Y013054D01*
X004635Y013113D01*
X004705Y013183D01*
X004764Y013264D01*
X004809Y013352D01*
X004840Y013447D01*
X004854Y013535D01*
X004283Y013535D01*
X004283Y013655D01*
X004854Y013655D01*
X004840Y013743D01*
X004809Y013838D01*
X004764Y013927D01*
X004705Y014007D01*
X004635Y014077D01*
X004554Y014136D01*
X004466Y014181D01*
X004371Y014212D01*
X004283Y014226D01*
X004283Y013655D01*
X004163Y013655D01*
X004163Y013535D01*
X003592Y013535D01*
X003606Y013447D01*
X003637Y013352D01*
X003682Y013264D01*
X003741Y013183D01*
X003811Y013113D01*
X003892Y013054D01*
X003980Y013009D01*
X004075Y012978D01*
X004163Y012984D02*
X004283Y012984D01*
X004389Y012984D02*
X006931Y012984D01*
X007037Y013103D02*
X007157Y013103D01*
X007157Y013221D02*
X007037Y013221D01*
X007037Y013340D02*
X007157Y013340D01*
X007157Y013458D02*
X007037Y013458D01*
X007037Y013577D02*
X004283Y013577D01*
X004283Y013695D02*
X004163Y013695D01*
X004163Y013655D02*
X004163Y014226D01*
X004075Y014212D01*
X003980Y014181D01*
X003892Y014136D01*
X003811Y014077D01*
X003741Y014007D01*
X003682Y013927D01*
X003637Y013838D01*
X003606Y013743D01*
X003592Y013655D01*
X004163Y013655D01*
X004163Y013577D02*
X002760Y013577D01*
X002760Y013663D02*
X002760Y013308D01*
X002749Y013268D01*
X002728Y013231D01*
X002698Y013201D01*
X002662Y013180D01*
X002621Y013169D01*
X002345Y013169D01*
X002345Y013663D01*
X002345Y013783D01*
X002225Y013783D01*
X002225Y014277D01*
X001949Y014277D01*
X001908Y014266D01*
X001872Y014245D01*
X001842Y014215D01*
X001821Y014178D01*
X001810Y014138D01*
X001810Y013783D01*
X002225Y013783D01*
X002225Y013663D01*
X001810Y013663D01*
X001810Y013308D01*
X001821Y013268D01*
X001842Y013231D01*
X001872Y013201D01*
X001908Y013180D01*
X001949Y013169D01*
X002225Y013169D01*
X002225Y013663D01*
X002345Y013663D01*
X002760Y013663D01*
X002760Y013783D02*
X002760Y014138D01*
X002749Y014178D01*
X002728Y014215D01*
X002698Y014245D01*
X002662Y014266D01*
X002621Y014277D01*
X002345Y014277D01*
X002345Y013783D01*
X002760Y013783D01*
X002760Y013814D02*
X003629Y013814D01*
X003599Y013695D02*
X002345Y013695D01*
X002345Y013577D02*
X002225Y013577D01*
X002225Y013695D02*
X000820Y013695D01*
X000820Y013577D02*
X001810Y013577D01*
X001810Y013458D02*
X000820Y013458D01*
X000820Y013340D02*
X001810Y013340D01*
X001852Y013221D02*
X000820Y013221D01*
X000820Y013103D02*
X003825Y013103D01*
X003713Y013221D02*
X002718Y013221D01*
X002760Y013340D02*
X003643Y013340D01*
X003604Y013458D02*
X002760Y013458D01*
X002760Y013932D02*
X003686Y013932D01*
X003784Y014051D02*
X002760Y014051D01*
X002752Y014169D02*
X003956Y014169D01*
X004163Y014169D02*
X004283Y014169D01*
X004283Y014051D02*
X004163Y014051D01*
X004163Y013932D02*
X004283Y013932D01*
X004283Y013814D02*
X004163Y013814D01*
X004163Y013458D02*
X004283Y013458D01*
X004283Y013340D02*
X004163Y013340D01*
X004163Y013221D02*
X004283Y013221D01*
X004283Y013103D02*
X004163Y013103D01*
X004621Y013103D02*
X006699Y013103D01*
X006587Y013221D02*
X004733Y013221D01*
X004803Y013340D02*
X006517Y013340D01*
X006478Y013458D02*
X004842Y013458D01*
X004847Y013695D02*
X006473Y013695D01*
X006466Y013655D02*
X007037Y013655D01*
X007037Y014226D01*
X006949Y014212D01*
X006854Y014181D01*
X006766Y014136D01*
X006685Y014077D01*
X006615Y014007D01*
X006556Y013927D01*
X006511Y013838D01*
X006480Y013743D01*
X006466Y013655D01*
X006503Y013814D02*
X004817Y013814D01*
X004760Y013932D02*
X006560Y013932D01*
X006658Y014051D02*
X004662Y014051D01*
X004490Y014169D02*
X006830Y014169D01*
X007037Y014169D02*
X007157Y014169D01*
X007157Y014051D02*
X007037Y014051D01*
X007037Y013932D02*
X007157Y013932D01*
X007157Y013814D02*
X007037Y013814D01*
X007037Y013695D02*
X007157Y013695D01*
X007157Y013577D02*
X008600Y013577D01*
X008600Y013695D02*
X007721Y013695D01*
X007691Y013814D02*
X008600Y013814D01*
X008600Y013932D02*
X007634Y013932D01*
X007536Y014051D02*
X008600Y014051D01*
X008603Y014169D02*
X007364Y014169D01*
X007716Y013458D02*
X008578Y013458D01*
X008460Y013340D02*
X007677Y013340D01*
X007607Y013221D02*
X008341Y013221D01*
X008223Y013103D02*
X007495Y013103D01*
X008105Y012747D02*
X000820Y012747D01*
X000820Y012629D02*
X005110Y012629D01*
X005021Y012510D02*
X000820Y012510D01*
X000820Y012392D02*
X004140Y012392D01*
X004163Y012392D02*
X004283Y012392D01*
X004283Y012395D02*
X004283Y011824D01*
X004854Y011824D01*
X004840Y011912D01*
X004809Y012007D01*
X004764Y012096D01*
X004705Y012176D01*
X004635Y012247D01*
X004554Y012305D01*
X004466Y012350D01*
X004371Y012381D01*
X004283Y012395D01*
X004306Y012392D02*
X004987Y012392D01*
X004987Y012273D02*
X004599Y012273D01*
X004721Y012155D02*
X004987Y012155D01*
X004987Y012036D02*
X004794Y012036D01*
X004838Y011918D02*
X004987Y011918D01*
X004947Y011799D02*
X004283Y011799D01*
X004283Y011824D02*
X004283Y011704D01*
X004163Y011704D01*
X004163Y011134D01*
X004075Y011147D01*
X003980Y011178D01*
X003892Y011223D01*
X003811Y011282D01*
X003741Y011352D01*
X003682Y011433D01*
X003637Y011522D01*
X003606Y011616D01*
X003592Y011704D01*
X004163Y011704D01*
X004163Y011824D01*
X003592Y011824D01*
X003606Y011912D01*
X003637Y012007D01*
X003682Y012096D01*
X003741Y012176D01*
X003811Y012247D01*
X003892Y012305D01*
X003980Y012350D01*
X004075Y012381D01*
X004163Y012395D01*
X004163Y011824D01*
X004283Y011824D01*
X004283Y011918D02*
X004163Y011918D01*
X004163Y012036D02*
X004283Y012036D01*
X004283Y012155D02*
X004163Y012155D01*
X004163Y012273D02*
X004283Y012273D01*
X004163Y011799D02*
X002720Y011799D01*
X002720Y011681D02*
X003596Y011681D01*
X003624Y011562D02*
X002720Y011562D01*
X002720Y011444D02*
X003677Y011444D01*
X003768Y011325D02*
X002720Y011325D01*
X002720Y011207D02*
X003925Y011207D01*
X004163Y011207D02*
X004283Y011207D01*
X004283Y011325D02*
X004163Y011325D01*
X004163Y011444D02*
X004283Y011444D01*
X004283Y011562D02*
X004163Y011562D01*
X004163Y011681D02*
X004283Y011681D01*
X004521Y011207D02*
X004632Y011207D01*
X004632Y011088D02*
X002654Y011088D01*
X002711Y010851D02*
X001090Y010851D01*
X001090Y010970D02*
X004632Y010970D01*
X004641Y010851D02*
X003609Y010851D01*
X004060Y010733D02*
X004687Y010733D01*
X004794Y010614D02*
X004227Y010614D01*
X004345Y010496D02*
X005570Y010496D01*
X005480Y010614D02*
X005267Y010614D01*
X005039Y010614D02*
X005021Y010614D01*
X005021Y010733D02*
X005039Y010733D01*
X005039Y010851D02*
X005021Y010851D01*
X005021Y010970D02*
X005039Y010970D01*
X005039Y011088D02*
X005021Y011088D01*
X005021Y011207D02*
X005039Y011207D01*
X005039Y011325D02*
X005021Y011325D01*
X005660Y011410D02*
X005660Y010660D01*
X005785Y010535D01*
X007035Y010535D01*
X006839Y010733D02*
X006594Y010733D01*
X006271Y010259D02*
X006151Y010259D01*
X006151Y010140D02*
X006271Y010140D01*
X006271Y010022D02*
X006151Y010022D01*
X005789Y010259D02*
X005474Y010259D01*
X005544Y010140D02*
X005736Y010140D01*
X005736Y010022D02*
X005544Y010022D01*
X005544Y009903D02*
X005736Y009903D01*
X005736Y009666D02*
X005544Y009666D01*
X005601Y009548D02*
X005736Y009548D01*
X005688Y010377D02*
X004464Y010377D01*
X004547Y010259D02*
X004743Y010259D01*
X004674Y010140D02*
X004565Y010140D01*
X004565Y009429D02*
X004674Y009429D01*
X004683Y009074D02*
X004344Y009074D01*
X004226Y008955D02*
X004674Y008955D01*
X004674Y008363D02*
X004400Y008363D01*
X004400Y008244D02*
X004686Y008244D01*
X004663Y008007D02*
X004400Y008007D01*
X004400Y007889D02*
X004634Y007889D01*
X004634Y007770D02*
X004400Y007770D01*
X004400Y007652D02*
X004634Y007652D01*
X004400Y008126D02*
X007686Y008126D01*
X007980Y008718D02*
X006271Y008718D01*
X006686Y009548D02*
X006818Y009548D01*
X006936Y009666D02*
X006686Y009666D01*
X007910Y009410D02*
X008410Y009910D01*
X008535Y009910D01*
X008710Y010085D01*
X008710Y010835D01*
X009035Y011160D01*
X009035Y011597D01*
X009470Y011562D02*
X010492Y011562D01*
X010492Y011444D02*
X009470Y011444D01*
X009470Y011325D02*
X010492Y011325D01*
X010492Y011207D02*
X009470Y011207D01*
X009404Y011088D02*
X010492Y011088D01*
X010492Y010970D02*
X009099Y010970D01*
X008981Y010851D02*
X009229Y010851D01*
X009032Y010733D02*
X008890Y010733D01*
X008890Y010614D02*
X008948Y010614D01*
X008908Y010496D02*
X008890Y010496D01*
X008783Y009903D02*
X010492Y009903D01*
X010492Y009785D02*
X010227Y009785D01*
X010343Y009666D02*
X010492Y009666D01*
X010492Y009548D02*
X010399Y009548D01*
X010492Y010022D02*
X010208Y010022D01*
X010201Y010017D02*
X010260Y010059D01*
X010311Y010110D01*
X010353Y010169D01*
X010386Y010233D01*
X010409Y010302D01*
X010419Y010370D01*
X009700Y010370D01*
X009700Y009950D01*
X009996Y009950D01*
X010068Y009961D01*
X010137Y009984D01*
X010201Y010017D01*
X010332Y010140D02*
X010492Y010140D01*
X010492Y010259D02*
X010394Y010259D01*
X010492Y010377D02*
X009700Y010377D01*
X009700Y010450D02*
X010419Y010450D01*
X010409Y010518D01*
X010386Y010587D01*
X010353Y010651D01*
X010311Y010710D01*
X010260Y010761D01*
X010201Y010803D01*
X010137Y010836D01*
X010068Y010859D01*
X009996Y010870D01*
X009700Y010870D01*
X009700Y010450D01*
X009700Y010496D02*
X009620Y010496D01*
X009620Y010614D02*
X009700Y010614D01*
X009700Y010733D02*
X009620Y010733D01*
X009620Y010851D02*
X009700Y010851D01*
X010091Y010851D02*
X010492Y010851D01*
X010492Y010733D02*
X010288Y010733D01*
X010372Y010614D02*
X010492Y010614D01*
X010492Y010496D02*
X010412Y010496D01*
X009700Y010259D02*
X009620Y010259D01*
X009620Y010140D02*
X009700Y010140D01*
X009700Y010022D02*
X009620Y010022D01*
X009620Y009785D02*
X009700Y009785D01*
X009700Y009666D02*
X009620Y009666D01*
X009620Y009548D02*
X009700Y009548D01*
X009620Y009370D02*
X008901Y009370D01*
X008911Y009302D01*
X008934Y009233D01*
X008967Y009169D01*
X009009Y009110D01*
X009060Y009059D01*
X009119Y009017D01*
X009183Y008984D01*
X009252Y008961D01*
X009324Y008950D01*
X009620Y008950D01*
X009620Y009370D01*
X009620Y009311D02*
X009700Y009311D01*
X009700Y009192D02*
X009620Y009192D01*
X009620Y009074D02*
X009700Y009074D01*
X009700Y008955D02*
X009620Y008955D01*
X009292Y008955D02*
X008595Y008955D01*
X008634Y009074D02*
X009046Y009074D01*
X008955Y009192D02*
X008634Y009192D01*
X008634Y009311D02*
X008910Y009311D01*
X009074Y008718D02*
X008340Y008718D01*
X008340Y008837D02*
X010492Y008837D01*
X009257Y006822D02*
X009080Y006822D01*
X009051Y006111D02*
X009065Y006111D01*
X008933Y005993D02*
X009270Y005993D01*
X009416Y004926D02*
X010492Y004926D01*
X010492Y004808D02*
X010098Y004808D01*
X010275Y004689D02*
X010492Y004689D01*
X010492Y004571D02*
X010348Y004571D01*
X010380Y004452D02*
X010492Y004452D01*
X010492Y004334D02*
X010380Y004334D01*
X010334Y004215D02*
X010492Y004215D01*
X010492Y004097D02*
X010240Y004097D01*
X010492Y003978D02*
X009468Y003978D01*
X009350Y003860D02*
X010492Y003860D01*
X010492Y003741D02*
X010223Y003741D01*
X010327Y003623D02*
X010492Y003623D01*
X010492Y003504D02*
X010376Y003504D01*
X010380Y003386D02*
X010492Y003386D01*
X010492Y003267D02*
X010355Y003267D01*
X010292Y003149D02*
X010492Y003149D01*
X010492Y003030D02*
X010140Y003030D01*
X010133Y002793D02*
X010492Y002793D01*
X010492Y002675D02*
X010289Y002675D01*
X010354Y002556D02*
X010492Y002556D01*
X010492Y002438D02*
X010380Y002438D01*
X010377Y002319D02*
X010492Y002319D01*
X010492Y002201D02*
X010328Y002201D01*
X010226Y002082D02*
X010492Y002082D01*
X010492Y001964D02*
X006340Y001964D01*
X006340Y002082D02*
X009094Y002082D01*
X009183Y001836D02*
X009252Y001859D01*
X009324Y001870D01*
X009620Y001870D01*
X009620Y001450D01*
X009700Y001450D01*
X009700Y001870D01*
X009996Y001870D01*
X010068Y001859D01*
X010137Y001836D01*
X010201Y001803D01*
X010260Y001761D01*
X010311Y001710D01*
X010353Y001651D01*
X010386Y001587D01*
X010409Y001518D01*
X010419Y001450D01*
X009700Y001450D01*
X009700Y001370D01*
X010419Y001370D01*
X010409Y001302D01*
X010386Y001233D01*
X010353Y001169D01*
X010311Y001110D01*
X010260Y001059D01*
X010201Y001017D01*
X010137Y000984D01*
X010068Y000961D01*
X009996Y000950D01*
X009700Y000950D01*
X009700Y001370D01*
X009620Y001370D01*
X009620Y000950D01*
X009324Y000950D01*
X009252Y000961D01*
X009183Y000984D01*
X009119Y001017D01*
X009060Y001059D01*
X009009Y001110D01*
X008967Y001169D01*
X008934Y001233D01*
X008911Y001302D01*
X008901Y001370D01*
X009620Y001370D01*
X009620Y001450D01*
X008901Y001450D01*
X008911Y001518D01*
X008934Y001587D01*
X008967Y001651D01*
X009009Y001710D01*
X009060Y001761D01*
X009119Y001803D01*
X009183Y001836D01*
X009210Y001845D02*
X008420Y001845D01*
X008406Y001859D02*
X008247Y001925D01*
X008073Y001925D01*
X007914Y001859D01*
X007791Y001736D01*
X007725Y001577D01*
X007725Y001403D01*
X007791Y001244D01*
X007914Y001121D01*
X008073Y001055D01*
X008247Y001055D01*
X008406Y001121D01*
X008529Y001244D01*
X008595Y001403D01*
X008595Y001577D01*
X008529Y001736D01*
X008406Y001859D01*
X008533Y001727D02*
X009026Y001727D01*
X008945Y001608D02*
X008582Y001608D01*
X008595Y001490D02*
X008907Y001490D01*
X008928Y001253D02*
X008532Y001253D01*
X008582Y001371D02*
X009620Y001371D01*
X009700Y001371D02*
X010492Y001371D01*
X010492Y001253D02*
X010392Y001253D01*
X010328Y001134D02*
X010492Y001134D01*
X010492Y001016D02*
X010199Y001016D01*
X010492Y000897D02*
X007251Y000897D01*
X007461Y001016D02*
X009121Y001016D01*
X008992Y001134D02*
X008419Y001134D01*
X007901Y001134D02*
X007550Y001134D01*
X007595Y001253D02*
X007788Y001253D01*
X007738Y001371D02*
X007595Y001371D01*
X007565Y001490D02*
X007725Y001490D01*
X007738Y001608D02*
X007497Y001608D01*
X007339Y001727D02*
X007787Y001727D01*
X007900Y001845D02*
X006420Y001845D01*
X006533Y001727D02*
X006981Y001727D01*
X006823Y001608D02*
X006582Y001608D01*
X006595Y001490D02*
X006755Y001490D01*
X006725Y001371D02*
X006582Y001371D01*
X006532Y001253D02*
X006725Y001253D01*
X006865Y001035D02*
X007160Y001330D01*
X006865Y001035D02*
X005785Y001035D01*
X005660Y001160D01*
X005660Y001660D01*
X005910Y001910D01*
X005910Y003410D01*
X005360Y003960D01*
X005360Y005060D01*
X005120Y005300D01*
X004230Y005300D01*
X001770Y005300D01*
X001660Y005410D01*
X001941Y005874D02*
X000820Y005874D01*
X000820Y005756D02*
X001112Y005756D01*
X000999Y005637D02*
X000820Y005637D01*
X000820Y005519D02*
X000950Y005519D01*
X000940Y005400D02*
X000820Y005400D01*
X000820Y005282D02*
X000959Y005282D01*
X001013Y005163D02*
X000820Y005163D01*
X000820Y005045D02*
X001145Y005045D01*
X001222Y004808D02*
X000820Y004808D01*
X000820Y004926D02*
X001921Y004926D01*
X002290Y005040D02*
X001660Y004410D01*
X001973Y003978D02*
X000820Y003978D01*
X000820Y003860D02*
X001855Y003860D01*
X002246Y003741D02*
X003785Y003741D01*
X003785Y003860D02*
X002364Y003860D01*
X002483Y003978D02*
X003785Y003978D01*
X003785Y004097D02*
X002601Y004097D01*
X002640Y004215D02*
X003785Y004215D01*
X003785Y004334D02*
X002640Y004334D01*
X002640Y004452D02*
X003745Y004452D01*
X003745Y004571D02*
X002640Y004571D01*
X002460Y004710D02*
X002460Y004210D01*
X001660Y003410D01*
X002140Y003030D02*
X002975Y003030D01*
X002857Y002912D02*
X000820Y002912D01*
X000820Y003030D02*
X001180Y003030D01*
X001028Y003149D02*
X000820Y003149D01*
X000820Y003267D02*
X000965Y003267D01*
X000940Y003386D02*
X000820Y003386D01*
X000820Y003504D02*
X000944Y003504D01*
X000993Y003623D02*
X000820Y003623D01*
X000820Y003741D02*
X001097Y003741D01*
X001080Y004097D02*
X000820Y004097D01*
X000820Y004215D02*
X000986Y004215D01*
X000940Y004334D02*
X000820Y004334D01*
X000820Y004452D02*
X000940Y004452D01*
X000972Y004571D02*
X000820Y004571D01*
X000820Y004689D02*
X001045Y004689D01*
X000820Y005993D02*
X001270Y005993D01*
X001065Y006111D02*
X000820Y006111D01*
X000820Y006230D02*
X000980Y006230D01*
X000940Y006348D02*
X000820Y006348D01*
X000820Y006467D02*
X000940Y006467D01*
X000978Y006585D02*
X000820Y006585D01*
X000820Y006704D02*
X001060Y006704D01*
X001257Y006822D02*
X000820Y006822D01*
X000820Y006941D02*
X001875Y006941D01*
X001660Y007410D02*
X002410Y006660D01*
X002410Y006060D01*
X002660Y005810D01*
X004230Y005810D01*
X004230Y005560D02*
X005260Y005560D01*
X005610Y005210D01*
X005610Y004085D01*
X006160Y003535D01*
X006160Y001490D01*
X005668Y000897D02*
X005356Y000897D01*
X005517Y001016D02*
X005550Y001016D01*
X005205Y001016D02*
X005115Y001016D01*
X005115Y001134D02*
X005205Y001134D01*
X005205Y001253D02*
X005115Y001253D01*
X005115Y001285D02*
X005115Y000856D01*
X005049Y000867D01*
X004978Y000890D01*
X004911Y000924D01*
X004851Y000968D01*
X004798Y001021D01*
X004754Y001081D01*
X004720Y001148D01*
X004697Y001219D01*
X004686Y001285D01*
X005115Y001285D01*
X005115Y001371D02*
X004582Y001371D01*
X004595Y001490D02*
X004712Y001490D01*
X004775Y001608D02*
X004582Y001608D01*
X004621Y001727D02*
X004898Y001727D01*
X004858Y001964D02*
X005232Y001964D01*
X005236Y001845D02*
X004740Y001845D01*
X004760Y002120D02*
X004760Y003060D01*
X004560Y003260D01*
X004550Y003250D01*
X004230Y003250D01*
X004220Y003260D01*
X004230Y003510D02*
X003710Y003510D01*
X002610Y002410D01*
X001660Y002410D01*
X001620Y001870D02*
X001324Y001870D01*
X001252Y001859D01*
X001183Y001836D01*
X001119Y001803D01*
X001060Y001761D01*
X001009Y001710D01*
X000967Y001651D01*
X000934Y001587D01*
X000911Y001518D01*
X000901Y001450D01*
X001620Y001450D01*
X001620Y001870D01*
X001620Y001845D02*
X001700Y001845D01*
X001700Y001870D02*
X001700Y001450D01*
X001620Y001450D01*
X001620Y001370D01*
X001700Y001370D01*
X001700Y001450D01*
X002419Y001450D01*
X002409Y001518D01*
X002386Y001587D01*
X002353Y001651D01*
X002311Y001710D01*
X002260Y001761D01*
X002201Y001803D01*
X002137Y001836D01*
X002068Y001859D01*
X001996Y001870D01*
X001700Y001870D01*
X001700Y001727D02*
X001620Y001727D01*
X001620Y001608D02*
X001700Y001608D01*
X001700Y001490D02*
X001620Y001490D01*
X001620Y001371D02*
X000820Y001371D01*
X000901Y001370D02*
X000911Y001302D01*
X000934Y001233D01*
X000967Y001169D01*
X001009Y001110D01*
X001060Y001059D01*
X001119Y001017D01*
X001183Y000984D01*
X001252Y000961D01*
X001324Y000950D01*
X001620Y000950D01*
X001620Y001370D01*
X000901Y001370D01*
X000907Y001490D02*
X000820Y001490D01*
X000820Y001608D02*
X000945Y001608D01*
X001026Y001727D02*
X000820Y001727D01*
X000820Y001845D02*
X001210Y001845D01*
X001094Y002082D02*
X000820Y002082D01*
X000820Y001964D02*
X004349Y001964D01*
X004467Y002082D02*
X002226Y002082D01*
X002328Y002201D02*
X004580Y002201D01*
X004580Y002319D02*
X002774Y002319D01*
X002892Y002438D02*
X004580Y002438D01*
X004580Y002556D02*
X003011Y002556D01*
X003129Y002675D02*
X004580Y002675D01*
X004580Y002793D02*
X003837Y002793D01*
X003660Y003010D02*
X004220Y003010D01*
X004230Y003000D01*
X004689Y003386D02*
X004844Y003386D01*
X004808Y003267D02*
X004963Y003267D01*
X004926Y003149D02*
X005081Y003149D01*
X005200Y003030D02*
X004940Y003030D01*
X004940Y002912D02*
X005318Y002912D01*
X005340Y002793D02*
X004940Y002793D01*
X004940Y002675D02*
X005340Y002675D01*
X005340Y002556D02*
X004940Y002556D01*
X004940Y002438D02*
X005340Y002438D01*
X005340Y002319D02*
X004940Y002319D01*
X004940Y002201D02*
X005340Y002201D01*
X005288Y002082D02*
X004940Y002082D01*
X004760Y002120D02*
X004130Y001490D01*
X004160Y001490D01*
X003901Y001134D02*
X003595Y001134D01*
X003595Y001016D02*
X004803Y001016D01*
X004727Y001134D02*
X004419Y001134D01*
X004532Y001253D02*
X004691Y001253D01*
X004964Y000897D02*
X003527Y000897D01*
X003525Y000895D02*
X003595Y000965D01*
X003595Y001695D01*
X003525Y001765D01*
X002795Y001765D01*
X002725Y001695D01*
X002725Y000965D01*
X002795Y000895D01*
X003525Y000895D01*
X003595Y001253D02*
X003788Y001253D01*
X003738Y001371D02*
X003595Y001371D01*
X003595Y001490D02*
X003725Y001490D01*
X003738Y001608D02*
X003595Y001608D01*
X003563Y001727D02*
X003787Y001727D01*
X003900Y001845D02*
X002110Y001845D01*
X002294Y001727D02*
X002757Y001727D01*
X002725Y001608D02*
X002375Y001608D01*
X002413Y001490D02*
X002725Y001490D01*
X002725Y001371D02*
X001700Y001371D01*
X001700Y001370D02*
X002419Y001370D01*
X002409Y001302D01*
X002386Y001233D01*
X002353Y001169D01*
X002311Y001110D01*
X002260Y001059D01*
X002201Y001017D01*
X002137Y000984D01*
X002068Y000961D01*
X001996Y000950D01*
X001700Y000950D01*
X001700Y001370D01*
X001700Y001253D02*
X001620Y001253D01*
X001620Y001134D02*
X001700Y001134D01*
X001700Y001016D02*
X001620Y001016D01*
X001121Y001016D02*
X000820Y001016D01*
X000820Y001134D02*
X000992Y001134D01*
X000928Y001253D02*
X000820Y001253D01*
X000820Y000897D02*
X002793Y000897D01*
X002725Y001016D02*
X002199Y001016D01*
X002328Y001134D02*
X002725Y001134D01*
X002725Y001253D02*
X002392Y001253D01*
X002289Y002675D02*
X002620Y002675D01*
X002738Y002793D02*
X002133Y002793D01*
X002292Y003149D02*
X003094Y003149D01*
X003212Y003267D02*
X002355Y003267D01*
X002380Y003386D02*
X003331Y003386D01*
X003449Y003504D02*
X002376Y003504D01*
X002327Y003623D02*
X003568Y003623D01*
X003399Y002912D02*
X003366Y002912D01*
X003483Y002793D02*
X003248Y002793D01*
X004230Y004020D02*
X004245Y004035D01*
X004860Y004035D01*
X005610Y003285D01*
X006316Y004215D02*
X006475Y004215D01*
X006447Y004097D02*
X006605Y004097D01*
X006605Y003978D02*
X006577Y003978D01*
X007100Y003260D02*
X007090Y003250D01*
X007090Y003000D02*
X006595Y003000D01*
X006460Y002985D01*
X006716Y002793D02*
X009187Y002793D01*
X009180Y003030D02*
X007535Y003030D01*
X007535Y002912D02*
X010492Y002912D01*
X010492Y001845D02*
X010110Y001845D01*
X010294Y001727D02*
X010492Y001727D01*
X010492Y001608D02*
X010375Y001608D01*
X010413Y001490D02*
X010492Y001490D01*
X009700Y001490D02*
X009620Y001490D01*
X009620Y001608D02*
X009700Y001608D01*
X009700Y001727D02*
X009620Y001727D01*
X009620Y001845D02*
X009700Y001845D01*
X009700Y001253D02*
X009620Y001253D01*
X009620Y001134D02*
X009700Y001134D01*
X009700Y001016D02*
X009620Y001016D01*
X009031Y002675D02*
X006835Y002675D01*
X006512Y002319D02*
X006340Y002319D01*
X006340Y002201D02*
X006639Y002201D01*
X006393Y002438D02*
X006340Y002438D01*
X006982Y000897D02*
X007069Y000897D01*
X005205Y000897D02*
X005115Y000897D01*
X005115Y001490D02*
X005205Y001490D01*
X005205Y001608D02*
X005115Y001608D01*
X005115Y001727D02*
X005205Y001727D01*
X004726Y003504D02*
X004675Y003504D01*
X004660Y004285D02*
X004235Y004285D01*
X004230Y004280D01*
X004660Y004285D02*
X005035Y004660D01*
X004230Y004790D02*
X002540Y004790D01*
X002460Y004710D01*
X002290Y005040D02*
X004230Y005040D01*
X004230Y005560D02*
X002510Y005560D01*
X001660Y006410D01*
X001117Y007059D02*
X000820Y007059D01*
X000820Y007178D02*
X001002Y007178D01*
X000953Y007296D02*
X000820Y007296D01*
X000820Y007415D02*
X000940Y007415D01*
X000956Y007533D02*
X000820Y007533D01*
X000820Y007652D02*
X001008Y007652D01*
X001132Y007770D02*
X000820Y007770D01*
X000820Y007889D02*
X001927Y007889D01*
X001660Y008410D02*
X002660Y007410D01*
X002660Y006210D01*
X002800Y006070D01*
X004230Y006070D01*
X004230Y006320D02*
X003250Y006320D01*
X003160Y006410D01*
X003160Y007109D01*
X003160Y007560D01*
X003060Y007660D01*
X002760Y007660D01*
X002460Y007960D01*
X002460Y009110D01*
X002160Y009410D01*
X001660Y009410D01*
X002217Y009074D02*
X002242Y009074D01*
X002280Y008955D02*
X000820Y008955D01*
X000820Y008837D02*
X002280Y008837D01*
X002280Y008718D02*
X002246Y008718D01*
X003160Y008211D02*
X003160Y009359D01*
X003111Y009359D01*
X002560Y009910D01*
X001060Y009910D01*
X000910Y010060D01*
X000910Y011310D01*
X001110Y011510D01*
X002198Y011510D01*
X002285Y011597D01*
X001850Y011799D02*
X000820Y011799D01*
X000820Y011681D02*
X001026Y011681D01*
X000907Y011562D02*
X000820Y011562D01*
X000835Y011490D02*
X000835Y011490D01*
X001090Y011207D02*
X001850Y011207D01*
X001850Y011325D02*
X001180Y011325D01*
X001090Y011088D02*
X001916Y011088D01*
X001850Y011918D02*
X000820Y011918D01*
X000820Y012036D02*
X001850Y012036D01*
X002720Y012036D02*
X003652Y012036D01*
X003608Y011918D02*
X002720Y011918D01*
X003725Y012155D02*
X000820Y012155D01*
X000820Y012273D02*
X003847Y012273D01*
X002345Y013221D02*
X002225Y013221D01*
X002225Y013340D02*
X002345Y013340D01*
X002345Y013458D02*
X002225Y013458D01*
X002225Y013814D02*
X002345Y013814D01*
X002345Y013932D02*
X002225Y013932D01*
X002225Y014051D02*
X002345Y014051D01*
X002345Y014169D02*
X002225Y014169D01*
X001818Y014169D02*
X000820Y014169D01*
X000820Y014051D02*
X001810Y014051D01*
X001810Y013932D02*
X000820Y013932D01*
X000820Y013814D02*
X001810Y013814D01*
X000820Y014288D02*
X010492Y014288D01*
X010492Y014169D02*
X009467Y014169D01*
X009470Y014051D02*
X010492Y014051D01*
X010492Y013932D02*
X009470Y013932D01*
X009470Y013814D02*
X010492Y013814D01*
X010492Y012036D02*
X009470Y012036D01*
X009470Y011918D02*
X010492Y011918D01*
X010492Y011799D02*
X009470Y011799D01*
X009470Y011681D02*
X010492Y011681D01*
X008210Y013090D02*
X008210Y013090D01*
X008105Y012629D02*
X006210Y012629D01*
X006299Y012510D02*
X008105Y012510D01*
X008026Y011681D02*
X007724Y011681D01*
X007696Y011562D02*
X007907Y011562D01*
X007789Y011444D02*
X007643Y011444D01*
X007670Y011325D02*
X007552Y011325D01*
X007552Y011207D02*
X007395Y011207D01*
X007910Y009410D02*
X008160Y009359D01*
X008160Y008211D01*
X008160Y007109D02*
X008359Y007109D01*
X007615Y006111D02*
X007575Y006111D01*
X007575Y005993D02*
X007802Y005993D01*
X008103Y005163D02*
X008269Y005163D01*
X008208Y005045D02*
X008056Y005045D01*
X008088Y004926D02*
X008146Y004926D01*
X008460Y005010D02*
X008485Y004985D01*
X008485Y005010D01*
X008035Y004560D01*
X007760Y004560D01*
X007535Y004785D01*
X007095Y004785D01*
X007090Y004790D01*
X007095Y005035D02*
X007685Y005035D01*
X007810Y004910D01*
X007550Y004215D02*
X007535Y004215D01*
X007555Y004210D02*
X007555Y004210D01*
X007575Y004097D02*
X008740Y004097D01*
X008688Y003978D02*
X007575Y003978D01*
X007095Y005035D02*
X007090Y005040D01*
X006657Y006467D02*
X006590Y006467D01*
X006031Y007059D02*
X005490Y007059D01*
X003336Y009359D02*
X003160Y009359D01*
X001235Y008007D02*
X000820Y008007D01*
X000820Y008126D02*
X001051Y008126D01*
X000974Y008244D02*
X000820Y008244D01*
X000820Y008363D02*
X000940Y008363D01*
X000940Y008481D02*
X000820Y008481D01*
X000820Y008600D02*
X000984Y008600D01*
X001074Y008718D02*
X000820Y008718D01*
X000820Y009074D02*
X001103Y009074D01*
X000996Y009192D02*
X000820Y009192D01*
X000820Y009311D02*
X000947Y009311D01*
X000940Y009429D02*
X000820Y009429D01*
X000820Y009548D02*
X000962Y009548D01*
X001022Y009666D02*
X000820Y009666D01*
X000820Y009785D02*
X000931Y009785D01*
X005581Y012629D02*
X005739Y012629D01*
X010321Y005637D02*
X010492Y005637D01*
X010492Y005519D02*
X010370Y005519D01*
X010380Y005400D02*
X010492Y005400D01*
X010492Y005282D02*
X010361Y005282D01*
X010307Y005163D02*
X010492Y005163D01*
X010492Y005045D02*
X010175Y005045D01*
X009028Y003149D02*
X008989Y003149D01*
X001187Y002793D02*
X000820Y002793D01*
X000820Y002675D02*
X001031Y002675D01*
X000966Y002556D02*
X000820Y002556D01*
X000820Y002438D02*
X000940Y002438D01*
X000943Y002319D02*
X000820Y002319D01*
X000820Y002201D02*
X000992Y002201D01*
D21*
X004160Y008535D02*
X004285Y008660D01*
X005109Y008660D01*
X005109Y009785D02*
X004285Y009785D01*
X004285Y010160D01*
X003984Y010461D01*
X003160Y010461D01*
X001711Y010461D01*
X001660Y010410D01*
X004035Y009160D02*
X004285Y009410D01*
X004285Y009785D01*
D22*
X004035Y009160D03*
X004160Y008535D03*
X003160Y006410D03*
X005035Y004660D03*
X005610Y003285D03*
X005510Y001910D03*
X003660Y003010D03*
X007810Y004910D03*
X008285Y004410D03*
X008485Y004985D03*
X007810Y006310D03*
X008785Y008410D03*
X007035Y010535D03*
D23*
X005610Y006710D02*
X004560Y006710D01*
X004160Y007110D01*
X004160Y008535D01*
X005610Y006710D02*
X005910Y006410D01*
X005910Y004260D01*
X006460Y003760D01*
X006460Y002985D01*
X006460Y002710D01*
X006760Y002410D01*
X009660Y002410D01*
D24*
X009660Y003410D02*
X009010Y003410D01*
X008860Y003260D01*
X007100Y003260D01*
X007090Y003510D02*
X008760Y003510D01*
X009660Y004410D01*
X008910Y004660D02*
X009660Y005410D01*
X009660Y006410D02*
X009110Y006410D01*
X008010Y005310D01*
X007100Y005310D01*
X007090Y005300D01*
X007090Y005560D02*
X007910Y005560D01*
X008910Y006560D01*
X008910Y007160D01*
X009160Y007410D01*
X009660Y007410D01*
X009510Y007410D01*
X008710Y007610D02*
X009510Y008410D01*
X009660Y008410D01*
X008785Y008410D02*
X008660Y008285D01*
X008660Y007860D01*
X008160Y007360D01*
X008160Y007109D01*
X008710Y006660D02*
X008710Y007610D01*
X008710Y006660D02*
X007860Y005810D01*
X007090Y005810D01*
X007090Y003760D02*
X008710Y003760D01*
X008910Y003960D01*
X008910Y004660D01*
X005510Y002960D02*
X005510Y001910D01*
X005510Y002960D02*
X004710Y003760D01*
X004230Y003760D01*
M02*
