G75*
%MOIN*%
%OFA0B0*%
%FSLAX24Y24*%
%IPPOS*%
%LPD*%
%AMOC8*
5,1,8,0,0,1.08239X$1,22.5*
%
%ADD10C,0.0000*%
%ADD11R,0.0650X0.0170*%
%ADD12R,0.0709X0.0630*%
%ADD13R,0.0630X0.0709*%
%ADD14R,0.0630X0.0787*%
D10*
X000660Y000660D02*
X000660Y014530D01*
X010652Y014530D01*
X010652Y000660D01*
X000660Y000660D01*
D11*
X004230Y003000D03*
X004230Y003250D03*
X004230Y003510D03*
X004230Y003760D03*
X004230Y004020D03*
X004230Y004280D03*
X004230Y004530D03*
X004230Y004790D03*
X004230Y005040D03*
X004230Y005300D03*
X004230Y005560D03*
X004230Y005810D03*
X004230Y006070D03*
X004230Y006320D03*
X007090Y006320D03*
X007090Y006070D03*
X007090Y005810D03*
X007090Y005560D03*
X007090Y005300D03*
X007090Y005040D03*
X007090Y004790D03*
X007090Y004530D03*
X007090Y004280D03*
X007090Y004020D03*
X007090Y003760D03*
X007090Y003510D03*
X007090Y003250D03*
X007090Y003000D03*
D12*
X008160Y007109D03*
X008160Y008211D03*
X008160Y009359D03*
X008160Y010461D03*
X003160Y010461D03*
X003160Y009359D03*
X003160Y008211D03*
X003160Y007109D03*
D13*
X005109Y007560D03*
X005109Y008660D03*
X005109Y009785D03*
X006211Y009785D03*
X006211Y008660D03*
X006211Y007560D03*
D14*
X009035Y011597D03*
X009035Y013723D03*
X002285Y013723D03*
X002285Y011597D03*
M02*
